<?xml version="1.0" encoding="UTF-8" standalone="no"?>
<!DOCTYPE svg PUBLIC "-//W3C//DTD SVG 1.1//EN" "http://www.w3.org/Graphics/SVG/1.1/DTD/svg11.dtd">
<svg width="357px" height="480px" version="1.1" xmlns="http://www.w3.org/2000/svg" xmlns:xlink="http://www.w3.org/1999/xlink" xml:space="preserve" xmlns:serif="http://www.serif.com/" style="fill-rule:evenodd;clip-rule:evenodd;stroke-linejoin:round;stroke-miterlimit:2;">
    <rect id="freq-power" x="0" y="0" width="356.929" height="479.866" style="fill:none;"/>
    <g>
        <g>
            <rect x="0.531" y="0.525" width="35.433" height="35.433"/>
            <rect x="0.531" y="41.525" width="35.433" height="35.433"/>
            <rect x="41.531" y="0.525" width="35.433" height="35.433"/>
            <rect x="41.531" y="41.525" width="35.433" height="35.433"/>
            <rect x="82.531" y="0.525" width="35.433" height="35.433"/>
            <rect x="82.531" y="41.525" width="35.433" height="35.433"/>
            <rect x="123.531" y="0.525" width="35.433" height="35.433"/>
            <rect x="123.531" y="41.525" width="35.433" height="35.433"/>
            <rect x="164.531" y="0.525" width="35.433" height="35.433"/>
            <rect x="164.531" y="41.525" width="35.433" height="35.433"/>
            <rect x="205.531" y="0.525" width="35.433" height="35.433"/>
            <rect x="205.531" y="41.525" width="35.433" height="35.433"/>
            <rect x="246.531" y="0.525" width="35.433" height="35.433"/>
            <rect x="246.531" y="41.525" width="35.433" height="35.433"/>
            <rect x="0.531" y="82.525" width="35.433" height="35.433"/>
            <rect x="41.531" y="82.525" width="35.433" height="35.433"/>
            <rect x="82.531" y="82.525" width="35.433" height="35.433"/>
            <rect x="123.531" y="82.525" width="35.433" height="35.433"/>
            <rect x="164.531" y="82.525" width="35.433" height="35.433"/>
            <rect x="205.531" y="82.525" width="35.433" height="35.433"/>
            <rect x="246.531" y="82.525" width="35.433" height="35.433"/>
            <rect x="0.531" y="123.525" width="35.433" height="35.433"/>
            <rect x="41.531" y="123.525" width="35.433" height="35.433"/>
            <rect x="82.531" y="123.525" width="35.433" height="35.433"/>
            <rect x="123.531" y="123.525" width="35.433" height="35.433"/>
            <rect x="164.531" y="123.525" width="35.433" height="35.433"/>
            <rect x="205.531" y="123.525" width="35.433" height="35.433"/>
            <rect x="246.531" y="123.525" width="35.433" height="35.433"/>
            <rect x="0.531" y="164.525" width="35.433" height="35.433"/>
            <rect x="41.531" y="164.525" width="35.433" height="35.433"/>
            <rect x="82.531" y="164.525" width="35.433" height="35.433"/>
            <rect x="123.531" y="164.525" width="35.433" height="35.433"/>
            <rect x="164.531" y="164.525" width="35.433" height="35.433"/>
            <rect x="205.531" y="164.525" width="35.433" height="35.433"/>
            <rect x="246.531" y="164.525" width="35.433" height="35.433"/>
            <rect x="0.531" y="205.525" width="35.433" height="35.433"/>
            <rect x="41.531" y="205.525" width="35.433" height="35.433"/>
            <rect x="82.531" y="205.525" width="35.433" height="35.433"/>
            <rect x="123.531" y="205.525" width="35.433" height="35.433"/>
            <rect x="164.531" y="205.525" width="35.433" height="35.433"/>
            <rect x="205.531" y="205.525" width="35.433" height="35.433"/>
            <rect x="246.531" y="205.525" width="35.433" height="35.433"/>
            <rect x="0.531" y="246.525" width="35.433" height="35.433"/>
            <rect x="41.531" y="246.525" width="35.433" height="35.433"/>
            <rect x="82.531" y="246.525" width="35.433" height="35.433"/>
            <rect x="123.531" y="246.525" width="35.433" height="35.433"/>
            <rect x="164.531" y="246.525" width="35.433" height="35.433"/>
            <rect x="205.531" y="246.525" width="35.433" height="35.433"/>
            <rect x="246.531" y="246.525" width="35.433" height="35.433"/>
            <rect x="0.531" y="287.525" width="35.433" height="35.433"/>
            <rect x="41.531" y="287.525" width="35.433" height="35.433"/>
            <rect x="82.531" y="287.525" width="35.433" height="35.433"/>
            <rect x="123.531" y="287.525" width="35.433" height="35.433"/>
            <rect x="164.531" y="287.525" width="35.433" height="35.433"/>
            <rect x="205.531" y="287.525" width="35.433" height="35.433"/>
            <rect x="246.531" y="287.525" width="35.433" height="35.433"/>
            <rect x="0.531" y="328.525" width="35.433" height="35.433"/>
            <rect x="41.531" y="328.525" width="35.433" height="35.433"/>
            <rect x="82.531" y="328.525" width="35.433" height="35.433"/>
            <rect x="123.531" y="328.525" width="35.433" height="35.433"/>
            <rect x="164.531" y="328.525" width="35.433" height="35.433"/>
            <rect x="205.531" y="328.525" width="35.433" height="35.433"/>
            <rect x="246.531" y="328.525" width="35.433" height="35.433"/>
            <rect x="0.531" y="369.525" width="35.433" height="35.433"/>
            <rect x="41.531" y="369.525" width="35.433" height="35.433"/>
            <rect x="82.531" y="369.525" width="35.433" height="35.433"/>
            <rect x="123.531" y="369.525" width="35.433" height="35.433"/>
            <rect x="164.531" y="369.525" width="35.433" height="35.433"/>
            <rect x="205.531" y="369.525" width="35.433" height="35.433"/>
            <rect x="246.531" y="369.525" width="35.433" height="35.433"/>
        </g>
        <g>
            <path d="M12.423,427.542L9.237,427.542L9.237,415.518C10.441,415.648 11.582,416.039 12.661,416.69C13.739,417.341 15.169,418.626 16.952,420.547C18.392,422.093 19.369,423.041 19.881,423.391C20.589,423.863 21.289,424.099 21.981,424.099C22.746,424.099 23.334,423.894 23.745,423.483C24.156,423.072 24.361,422.504 24.361,421.78C24.361,421.064 24.146,420.494 23.714,420.071C23.283,419.648 22.567,419.404 21.566,419.339L21.908,415.921C23.796,416.124 25.151,416.763 25.973,417.837C26.794,418.911 27.205,420.254 27.205,421.865C27.205,423.631 26.729,425.019 25.777,426.028C24.825,427.037 23.641,427.542 22.225,427.542C21.419,427.542 20.652,427.397 19.924,427.108C19.196,426.819 18.433,426.362 17.635,425.735C17.106,425.32 16.345,424.571 15.352,423.489C14.36,422.407 13.7,421.721 13.375,421.432C13.049,421.143 12.732,420.909 12.423,420.73L12.423,427.542Z"/>
            <path d="M27.205,435.659C27.205,437.393 26.587,438.748 25.35,439.724C23.885,440.888 21.456,441.47 18.062,441.47C14.677,441.47 12.244,440.884 10.763,439.712C9.542,438.744 8.932,437.393 8.932,435.659C8.932,433.918 9.601,432.514 10.94,431.448C12.278,430.382 14.665,429.849 18.099,429.849C21.468,429.849 23.893,430.435 25.374,431.607C26.595,432.575 27.205,433.926 27.205,435.659ZM24.361,435.659C24.361,435.244 24.229,434.874 23.964,434.548C23.7,434.223 23.226,433.971 22.542,433.792C21.655,433.556 20.162,433.438 18.062,433.438C15.963,433.438 14.52,433.543 13.735,433.755C12.95,433.967 12.427,434.233 12.166,434.555C11.906,434.876 11.776,435.244 11.776,435.659C11.776,436.074 11.908,436.445 12.172,436.77C12.437,437.096 12.911,437.348 13.595,437.527C14.473,437.763 15.963,437.881 18.062,437.881C20.162,437.881 21.604,437.775 22.39,437.564C23.175,437.352 23.7,437.086 23.964,436.764C24.229,436.443 24.361,436.074 24.361,435.659Z"/>
        </g>
        <g>
            <path d="M54.985,415.835L55.388,419.155C54.542,419.261 53.895,419.546 53.447,420.01C53,420.474 52.776,421.035 52.776,421.694C52.776,422.402 53.044,422.999 53.581,423.483C54.119,423.967 54.843,424.209 55.754,424.209C56.617,424.209 57.3,423.977 57.805,423.513C58.31,423.049 58.562,422.484 58.562,421.817C58.562,421.377 58.476,420.852 58.306,420.242L61.101,420.62C61.077,421.548 61.278,422.256 61.705,422.744C62.132,423.233 62.7,423.477 63.408,423.477C64.01,423.477 64.49,423.298 64.848,422.94C65.207,422.582 65.386,422.105 65.386,421.511C65.386,420.925 65.182,420.425 64.775,420.01C64.368,419.595 63.774,419.343 62.993,419.253L63.53,416.091C64.612,416.311 65.477,416.643 66.124,417.086C66.771,417.53 67.28,418.148 67.65,418.942C68.02,419.735 68.205,420.624 68.205,421.609C68.205,423.294 67.668,424.645 66.594,425.662C65.715,426.5 64.722,426.919 63.616,426.919C62.045,426.919 60.792,426.061 59.856,424.343C59.636,425.369 59.144,426.189 58.379,426.803C57.614,427.418 56.69,427.725 55.608,427.725C54.037,427.725 52.698,427.151 51.592,426.004C50.485,424.856 49.932,423.428 49.932,421.719C49.932,420.099 50.397,418.757 51.329,417.691C52.261,416.624 53.48,416.006 54.985,415.835Z"/>
            <path d="M68.205,435.659C68.205,437.393 67.587,438.748 66.35,439.724C64.885,440.888 62.456,441.47 59.062,441.47C55.677,441.47 53.244,440.884 51.763,439.712C50.542,438.744 49.932,437.393 49.932,435.659C49.932,433.918 50.601,432.514 51.94,431.448C53.278,430.382 55.665,429.849 59.099,429.849C62.468,429.849 64.893,430.435 66.374,431.607C67.595,432.575 68.205,433.926 68.205,435.659ZM65.361,435.659C65.361,435.244 65.229,434.874 64.964,434.548C64.7,434.223 64.226,433.971 63.542,433.792C62.655,433.556 61.162,433.438 59.062,433.438C56.963,433.438 55.52,433.543 54.735,433.755C53.95,433.967 53.427,434.233 53.166,434.555C52.906,434.876 52.776,435.244 52.776,435.659C52.776,436.074 52.908,436.445 53.172,436.77C53.437,437.096 53.911,437.348 54.595,437.527C55.473,437.763 56.963,437.881 59.062,437.881C61.162,437.881 62.604,437.775 63.39,437.564C64.175,437.352 64.7,437.086 64.964,436.764C65.229,436.443 65.361,436.074 65.361,435.659Z"/>
        </g>
        <g>
            <path d="M91.237,422.683L94.838,422.683L94.838,415.359L97.841,415.359L109.205,423.123L109.205,426.004L97.853,426.004L97.853,428.225L94.838,428.225L94.838,426.004L91.237,426.004L91.237,422.683ZM97.853,422.683L103.969,422.683L97.853,418.569L97.853,422.683Z"/>
            <path d="M109.205,435.659C109.205,437.393 108.587,438.748 107.35,439.724C105.885,440.888 103.456,441.47 100.062,441.47C96.677,441.47 94.244,440.884 92.763,439.712C91.542,438.744 90.932,437.393 90.932,435.659C90.932,433.918 91.601,432.514 92.94,431.448C94.278,430.382 96.665,429.849 100.099,429.849C103.468,429.849 105.893,430.435 107.374,431.607C108.595,432.575 109.205,433.926 109.205,435.659ZM106.361,435.659C106.361,435.244 106.229,434.874 105.964,434.548C105.7,434.223 105.226,433.971 104.542,433.792C103.655,433.556 102.162,433.438 100.062,433.438C97.963,433.438 96.52,433.543 95.735,433.755C94.95,433.967 94.427,434.233 94.166,434.555C93.906,434.876 93.776,435.244 93.776,435.659C93.776,436.074 93.908,436.445 94.172,436.77C94.437,437.096 94.911,437.348 95.595,437.527C96.473,437.763 97.963,437.881 100.062,437.881C102.162,437.881 103.604,437.775 104.39,437.564C105.175,437.352 105.7,437.086 105.964,436.764C106.229,436.443 106.361,436.074 106.361,435.659Z"/>
        </g>
        <g>
            <path d="M136.839,416.006L137.193,419.424C136.42,419.522 135.807,419.811 135.356,420.291C134.904,420.771 134.678,421.324 134.678,421.951C134.678,422.667 134.969,423.273 135.551,423.77C136.133,424.266 137.01,424.514 138.182,424.514C139.28,424.514 140.104,424.268 140.653,423.776C141.203,423.283 141.477,422.643 141.477,421.853C141.477,420.868 141.042,419.986 140.171,419.204L140.574,416.421L149.888,418.179L149.888,427.249L146.678,427.249L146.678,420.779L143.638,420.242C144.021,421.007 144.212,421.788 144.212,422.586C144.212,424.107 143.658,425.397 142.552,426.455C141.445,427.513 140.008,428.042 138.243,428.042C136.77,428.042 135.455,427.615 134.3,426.76C132.721,425.597 131.932,423.981 131.932,421.914C131.932,420.262 132.375,418.915 133.262,417.874C134.149,416.832 135.341,416.209 136.839,416.006Z"/>
            <path d="M150.205,435.659C150.205,437.393 149.587,438.748 148.35,439.724C146.885,440.888 144.456,441.47 141.062,441.47C137.677,441.47 135.244,440.884 133.763,439.712C132.542,438.744 131.932,437.393 131.932,435.659C131.932,433.918 132.601,432.514 133.94,431.448C135.278,430.382 137.665,429.849 141.099,429.849C144.468,429.849 146.893,430.435 148.374,431.607C149.595,432.575 150.205,433.926 150.205,435.659ZM147.361,435.659C147.361,435.244 147.229,434.874 146.964,434.548C146.7,434.223 146.226,433.971 145.542,433.792C144.655,433.556 143.162,433.438 141.062,433.438C138.963,433.438 137.52,433.543 136.735,433.755C135.95,433.967 135.427,434.233 135.166,434.555C134.906,434.876 134.776,435.244 134.776,435.659C134.776,436.074 134.908,436.445 135.172,436.77C135.437,437.096 135.911,437.348 136.595,437.527C137.473,437.763 138.963,437.881 141.062,437.881C143.162,437.881 144.604,437.775 145.39,437.564C146.175,437.352 146.7,437.086 146.964,436.764C147.229,436.443 147.361,436.074 147.361,435.659Z"/>
        </g>
        <g>
            <path d="M186.75,427.578L186.384,424.258C187.067,424.177 187.572,423.965 187.897,423.623C188.223,423.281 188.386,422.838 188.386,422.293C188.386,421.568 188.06,420.956 187.409,420.455C186.758,419.955 185.403,419.64 183.344,419.509C184.353,420.364 184.858,421.426 184.858,422.695C184.858,424.128 184.313,425.355 183.222,426.376C182.132,427.397 180.724,427.908 178.998,427.908C177.167,427.908 175.698,427.371 174.592,426.297C173.485,425.222 172.932,423.843 172.932,422.158C172.932,420.352 173.633,418.867 175.037,417.703C176.441,416.539 178.742,415.957 181.94,415.957C185.22,415.957 187.584,416.563 189.033,417.776C190.481,418.989 191.205,420.563 191.205,422.5C191.205,423.859 190.825,424.984 190.064,425.875C189.303,426.767 188.198,427.334 186.75,427.578ZM179.267,419.802C178.152,419.802 177.291,420.059 176.685,420.571C176.079,421.084 175.776,421.67 175.776,422.329C175.776,422.964 176.024,423.493 176.52,423.916C177.017,424.339 177.831,424.551 178.962,424.551C180.126,424.551 180.978,424.323 181.519,423.867C182.06,423.412 182.331,422.842 182.331,422.158C182.331,421.499 182.073,420.942 181.556,420.486C181.039,420.03 180.276,419.802 179.267,419.802Z"/>
            <path d="M191.205,435.659C191.205,437.393 190.587,438.748 189.35,439.724C187.885,440.888 185.456,441.47 182.062,441.47C178.677,441.47 176.244,440.884 174.763,439.712C173.542,438.744 172.932,437.393 172.932,435.659C172.932,433.918 173.601,432.514 174.94,431.448C176.278,430.382 178.665,429.849 182.099,429.849C185.468,429.849 187.893,430.435 189.374,431.607C190.595,432.575 191.205,433.926 191.205,435.659ZM188.361,435.659C188.361,435.244 188.229,434.874 187.964,434.548C187.7,434.223 187.226,433.971 186.542,433.792C185.655,433.556 184.162,433.438 182.062,433.438C179.963,433.438 178.52,433.543 177.735,433.755C176.95,433.967 176.427,434.233 176.166,434.555C175.906,434.876 175.776,435.244 175.776,435.659C175.776,436.074 175.908,436.445 176.172,436.77C176.437,437.096 176.911,437.348 177.595,437.527C178.473,437.763 179.963,437.881 182.062,437.881C184.162,437.881 185.604,437.775 186.39,437.564C187.175,437.352 187.7,437.086 187.964,436.764C188.229,436.443 188.361,436.074 188.361,435.659Z"/>
        </g>
        <g>
            <path d="M228.702,415.957L231.888,415.957L231.888,427.688L229.398,427.688C228.446,426.72 227.078,425.735 225.296,424.734C223.514,423.733 221.62,422.97 219.614,422.445C217.608,421.92 215.815,421.662 214.237,421.67L214.237,418.362C216.711,418.419 219.233,418.93 221.805,419.894C224.377,420.858 226.676,422.146 228.702,423.757L228.702,415.957Z"/>
            <path d="M232.205,435.659C232.205,437.393 231.587,438.748 230.35,439.724C228.885,440.888 226.456,441.47 223.062,441.47C219.677,441.47 217.244,440.884 215.763,439.712C214.542,438.744 213.932,437.393 213.932,435.659C213.932,433.918 214.601,432.514 215.94,431.448C217.278,430.382 219.665,429.849 223.099,429.849C226.468,429.849 228.893,430.435 230.374,431.607C231.595,432.575 232.205,433.926 232.205,435.659ZM229.361,435.659C229.361,435.244 229.229,434.874 228.964,434.548C228.7,434.223 228.226,433.971 227.542,433.792C226.655,433.556 225.162,433.438 223.062,433.438C220.963,433.438 219.52,433.543 218.735,433.755C217.95,433.967 217.427,434.233 217.166,434.555C216.906,434.876 216.776,435.244 216.776,435.659C216.776,436.074 216.908,436.445 217.172,436.77C217.437,437.096 217.911,437.348 218.595,437.527C219.473,437.763 220.963,437.881 223.062,437.881C225.162,437.881 226.604,437.775 227.39,437.564C228.175,437.352 228.7,437.086 228.964,436.764C229.229,436.443 229.361,436.074 229.361,435.659Z"/>
        </g>
        <g>
            <path d="M264.892,418.899C265.267,418.012 265.782,417.367 266.437,416.964C267.092,416.561 267.81,416.36 268.591,416.36C269.926,416.36 271.029,416.826 271.899,417.758C272.77,418.69 273.205,420.014 273.205,421.731C273.205,423.432 272.77,424.752 271.899,425.692C271.029,426.632 269.926,427.102 268.591,427.102C267.761,427.102 267.023,426.887 266.376,426.455C265.729,426.024 265.234,425.418 264.892,424.636C264.494,425.629 263.912,426.384 263.147,426.901C262.382,427.418 261.499,427.676 260.498,427.676C258.846,427.676 257.503,427.149 256.47,426.095C255.436,425.041 254.919,423.639 254.919,421.89C254.919,420.262 255.347,418.907 256.201,417.825C257.21,416.547 258.594,415.908 260.351,415.908C261.32,415.908 262.209,416.148 263.019,416.629C263.828,417.109 264.453,417.866 264.892,418.899ZM268.347,419.607C267.663,419.607 267.13,419.8 266.748,420.187C266.365,420.573 266.174,421.088 266.174,421.731C266.174,422.382 266.367,422.903 266.754,423.294C267.141,423.684 267.676,423.88 268.359,423.88C269.002,423.88 269.517,423.686 269.903,423.3C270.29,422.913 270.483,422.402 270.483,421.768C270.483,421.109 270.288,420.584 269.897,420.193C269.507,419.802 268.99,419.607 268.347,419.607ZM260.681,419.29C259.737,419.29 259.001,419.532 258.472,420.016C257.943,420.5 257.678,421.104 257.678,421.829C257.678,422.537 257.932,423.123 258.441,423.587C258.95,424.05 259.684,424.282 260.644,424.282C261.483,424.282 262.156,424.046 262.665,423.574C263.173,423.102 263.428,422.504 263.428,421.78C263.428,420.942 263.139,420.317 262.561,419.906C261.983,419.495 261.356,419.29 260.681,419.29Z"/>
            <path d="M273.205,435.659C273.205,437.393 272.587,438.748 271.35,439.724C269.885,440.888 267.456,441.47 264.062,441.47C260.677,441.47 258.244,440.884 256.763,439.712C255.542,438.744 254.932,437.393 254.932,435.659C254.932,433.918 255.601,432.514 256.94,431.448C258.278,430.382 260.665,429.849 264.099,429.849C267.468,429.849 269.893,430.435 271.374,431.607C272.595,432.575 273.205,433.926 273.205,435.659ZM270.361,435.659C270.361,435.244 270.229,434.874 269.964,434.548C269.7,434.223 269.226,433.971 268.542,433.792C267.655,433.556 266.162,433.438 264.062,433.438C261.963,433.438 260.52,433.543 259.735,433.755C258.95,433.967 258.427,434.233 258.166,434.555C257.906,434.876 257.776,435.244 257.776,435.659C257.776,436.074 257.908,436.445 258.172,436.77C258.437,437.096 258.911,437.348 259.595,437.527C260.473,437.763 261.963,437.881 264.062,437.881C266.162,437.881 267.604,437.775 268.39,437.564C269.175,437.352 269.7,437.086 269.964,436.764C270.229,436.443 270.361,436.074 270.361,435.659Z"/>
        </g>
        <g>
            <path d="M301.803,396.126L298.373,396.126L298.373,383.199C297.119,384.371 295.642,385.238 293.942,385.799L293.942,382.686C294.837,382.393 295.809,381.838 296.859,381.02C297.909,380.202 298.629,379.248 299.02,378.158L301.803,378.158L301.803,396.126Z"/>
            <path d="M312.728,378.158C314.462,378.158 315.817,378.776 316.793,380.013C317.957,381.478 318.539,383.907 318.539,387.301C318.539,390.686 317.953,393.119 316.781,394.601C315.812,395.821 314.462,396.432 312.728,396.432C310.987,396.432 309.583,395.762 308.517,394.424C307.451,393.085 306.918,390.698 306.918,387.264C306.918,383.895 307.504,381.47 308.675,379.989C309.644,378.768 310.995,378.158 312.728,378.158ZM312.728,381.002C312.313,381.002 311.943,381.134 311.617,381.399C311.292,381.663 311.039,382.137 310.86,382.821C310.624,383.708 310.506,385.201 310.506,387.301C310.506,389.4 310.612,390.843 310.824,391.628C311.035,392.413 311.302,392.936 311.623,393.197C311.945,393.457 312.313,393.587 312.728,393.587C313.143,393.587 313.513,393.455 313.839,393.191C314.164,392.926 314.417,392.452 314.596,391.768C314.832,390.89 314.95,389.4 314.95,387.301C314.95,385.201 314.844,383.759 314.632,382.973C314.421,382.188 314.154,381.663 313.833,381.399C313.511,381.134 313.143,381.002 312.728,381.002Z"/>
        </g>
        <g>
            <path d="M74.341,471.622L74.341,453.727L86.609,453.727L86.609,456.754L77.954,456.754L77.954,460.99L85.425,460.99L85.425,464.017L77.954,464.017L77.954,471.622L74.341,471.622Z"/>
            <path d="M89.599,471.622L89.599,453.727L97.204,453.727C99.117,453.727 100.506,453.888 101.373,454.209C102.24,454.531 102.934,455.102 103.454,455.924C103.975,456.746 104.236,457.686 104.236,458.744C104.236,460.087 103.841,461.196 103.052,462.07C102.262,462.945 101.082,463.497 99.512,463.725C100.293,464.18 100.938,464.681 101.446,465.226C101.955,465.771 102.641,466.74 103.503,468.131L105.688,471.622L101.367,471.622L98.755,467.728C97.827,466.337 97.192,465.46 96.85,465.098C96.509,464.736 96.147,464.487 95.764,464.353C95.382,464.219 94.775,464.152 93.945,464.152L93.213,464.152L93.213,471.622L89.599,471.622ZM93.213,461.295L95.886,461.295C97.619,461.295 98.702,461.222 99.133,461.076C99.564,460.929 99.902,460.677 100.146,460.319C100.39,459.961 100.513,459.513 100.513,458.976C100.513,458.374 100.352,457.888 100.03,457.517C99.709,457.147 99.255,456.913 98.669,456.815C98.376,456.775 97.497,456.754 96.033,456.754L93.213,456.754L93.213,461.295Z"/>
            <path d="M107.641,471.622L107.641,453.727L120.911,453.727L120.911,456.754L111.255,456.754L111.255,460.722L120.239,460.722L120.239,463.737L111.255,463.737L111.255,468.607L121.252,468.607L121.252,471.622L107.641,471.622Z"/>
            <path d="M138.721,469.352C139.608,469.987 140.572,470.491 141.614,470.866L140.283,473.417C139.738,473.254 139.205,473.03 138.684,472.745C138.57,472.689 137.768,472.16 136.279,471.159C135.107,471.671 133.809,471.928 132.385,471.928C129.634,471.928 127.48,471.118 125.922,469.498C124.363,467.879 123.584,465.604 123.584,462.675C123.584,459.753 124.365,457.481 125.928,455.857C127.49,454.234 129.61,453.422 132.287,453.422C134.94,453.422 137.044,454.234 138.599,455.857C140.153,457.481 140.93,459.753 140.93,462.675C140.93,464.221 140.714,465.58 140.283,466.752C139.958,467.647 139.437,468.514 138.721,469.352ZM135.815,467.313C136.279,466.768 136.627,466.109 136.859,465.336C137.091,464.563 137.207,463.676 137.207,462.675C137.207,460.608 136.751,459.063 135.84,458.042C134.928,457.021 133.736,456.51 132.263,456.51C130.79,456.51 129.596,457.023 128.68,458.048C127.765,459.074 127.307,460.616 127.307,462.675C127.307,464.766 127.765,466.331 128.68,467.368C129.596,468.406 130.753,468.925 132.153,468.925C132.674,468.925 133.166,468.839 133.63,468.668C132.898,468.188 132.153,467.814 131.396,467.545L132.41,465.482C133.598,465.889 134.733,466.5 135.815,467.313Z"/>
            <path d="M156.372,476.884L154.016,476.884C152.771,475.004 151.823,473.051 151.172,471.024C150.521,468.998 150.195,467.037 150.195,465.141C150.195,462.789 150.598,460.563 151.404,458.463C152.104,456.64 152.991,454.96 154.065,453.422L156.409,453.422C155.294,455.888 154.527,457.985 154.108,459.714C153.688,461.444 153.479,463.277 153.479,465.214C153.479,466.548 153.603,467.916 153.851,469.315C154.099,470.715 154.439,472.046 154.87,473.307C155.155,474.137 155.656,475.329 156.372,476.884Z"/>
            <path d="M158.887,471.622L158.887,453.727L162.317,453.727L162.317,463.224L166.333,458.659L170.557,458.659L166.125,463.395L170.874,471.622L167.175,471.622L163.916,465.8L162.317,467.472L162.317,471.622L158.887,471.622Z"/>
            <path d="M172.949,471.622L172.949,453.727L176.562,453.727L176.562,460.77L183.642,460.77L183.642,453.727L187.256,453.727L187.256,471.622L183.642,471.622L183.642,463.798L176.562,463.798L176.562,471.622L172.949,471.622Z"/>
            <path d="M189.587,471.622L189.587,468.949L194.446,463.37C195.243,462.459 195.833,461.812 196.216,461.43C195.817,461.454 195.292,461.47 194.641,461.478L190.063,461.503L190.063,458.659L200.781,458.659L200.781,461.088L195.825,466.801L194.079,468.693C195.032,468.636 195.622,468.607 195.849,468.607L201.16,468.607L201.16,471.622L189.587,471.622Z"/>
            <path d="M202.515,476.884C203.19,475.435 203.666,474.324 203.943,473.551C204.219,472.778 204.476,471.887 204.712,470.878C204.948,469.869 205.123,468.91 205.237,468.003C205.351,467.096 205.408,466.166 205.408,465.214C205.408,463.277 205.2,461.444 204.785,459.714C204.37,457.985 203.605,455.888 202.49,453.422L204.822,453.422C206.05,455.171 207.005,457.027 207.684,458.988C208.364,460.949 208.703,462.939 208.703,464.957C208.703,466.658 208.435,468.481 207.898,470.426C207.287,472.607 206.282,474.76 204.883,476.884L202.515,476.884Z"/>
        </g>
        <g>
            <path d="M348.628,255.558L330.733,255.558L330.733,249.76C330.733,247.563 330.822,246.13 331.001,245.463C331.27,244.438 331.854,243.579 332.753,242.887C333.652,242.196 334.814,241.85 336.238,241.85C337.337,241.85 338.26,242.049 339.009,242.448C339.758,242.847 340.346,243.353 340.773,243.968C341.2,244.582 341.483,245.207 341.621,245.841C341.792,246.704 341.878,247.953 341.878,249.589L341.878,251.945L348.628,251.945L348.628,255.558ZM333.76,251.945L338.838,251.945L338.838,249.967C338.838,248.543 338.745,247.591 338.557,247.111C338.37,246.631 338.077,246.254 337.679,245.982C337.28,245.709 336.816,245.573 336.287,245.573C335.636,245.573 335.099,245.764 334.676,246.147C334.252,246.529 333.988,247.013 333.882,247.599C333.801,248.031 333.76,248.897 333.76,250.199L333.76,251.945Z"/>
            <path d="M339.79,239.616C337.967,239.616 336.437,239.343 335.201,238.798C334.289,238.391 333.471,237.836 332.747,237.132C332.023,236.428 331.486,235.657 331.136,234.819C330.664,233.704 330.428,232.418 330.428,230.961C330.428,228.324 331.245,226.215 332.881,224.632C334.517,223.049 336.792,222.257 339.705,222.257C342.594,222.257 344.854,223.043 346.486,224.613C348.118,226.184 348.933,228.284 348.933,230.912C348.933,233.573 348.122,235.689 346.498,237.26C344.875,238.831 342.639,239.616 339.79,239.616ZM339.668,235.893C341.695,235.893 343.231,235.425 344.276,234.489C345.322,233.553 345.845,232.365 345.845,230.924C345.845,229.484 345.326,228.302 344.289,227.378C343.251,226.455 341.695,225.993 339.619,225.993C337.569,225.993 336.039,226.442 335.03,227.342C334.021,228.241 333.516,229.435 333.516,230.924C333.516,232.414 334.027,233.614 335.048,234.526C336.069,235.437 337.609,235.893 339.668,235.893Z"/>
            <path d="M348.628,216.899L330.733,221.171L330.733,217.472L343.025,214.775L330.733,211.503L330.733,207.206L343.233,204.069L330.733,201.322L330.733,197.685L348.628,202.03L348.628,205.863L335.249,209.428L348.628,212.98L348.628,216.899Z"/>
            <path d="M348.628,195.841L330.733,195.841L330.733,182.572L333.76,182.572L333.76,192.228L337.727,192.228L337.727,183.244L340.743,183.244L340.743,192.228L345.613,192.228L345.613,182.231L348.628,182.231L348.628,195.841Z"/>
            <path d="M348.628,179.154L330.733,179.154L330.733,171.549C330.733,169.637 330.893,168.247 331.215,167.381C331.536,166.514 332.108,165.82 332.93,165.299C333.752,164.779 334.692,164.518 335.75,164.518C337.093,164.518 338.201,164.913 339.076,165.702C339.951,166.492 340.502,167.672 340.73,169.242C341.186,168.461 341.687,167.816 342.232,167.308C342.777,166.799 343.745,166.113 345.137,165.251L348.628,163.066L348.628,167.387L344.734,169.999C343.343,170.927 342.466,171.562 342.104,171.903C341.741,172.245 341.493,172.607 341.359,172.99C341.225,173.372 341.158,173.979 341.158,174.809L341.158,175.541L348.628,175.541L348.628,179.154ZM338.301,175.541L338.301,172.868C338.301,171.134 338.228,170.052 338.081,169.621C337.935,169.189 337.683,168.852 337.325,168.608C336.966,168.363 336.519,168.241 335.982,168.241C335.38,168.241 334.893,168.402 334.523,168.724C334.153,169.045 333.919,169.499 333.821,170.085C333.78,170.378 333.76,171.257 333.76,172.721L333.76,175.541L338.301,175.541Z"/>
            <path d="M353.889,148.503L353.889,150.859C352.01,152.104 350.056,153.052 348.03,153.703C346.004,154.354 344.042,154.679 342.146,154.679C339.794,154.679 337.569,154.277 335.469,153.471C333.646,152.771 331.966,151.884 330.428,150.81L330.428,148.466C332.893,149.581 334.991,150.348 336.72,150.767C338.45,151.186 340.283,151.396 342.22,151.396C343.554,151.396 344.921,151.272 346.321,151.023C347.721,150.775 349.051,150.435 350.313,150.004C351.143,149.719 352.335,149.219 353.889,148.503Z"/>
            <path d="M335.152,146.574C333.549,146.574 332.36,146.222 331.587,145.518C330.814,144.814 330.428,143.86 330.428,142.655C330.428,141.41 330.812,140.436 331.581,139.732C332.35,139.028 333.54,138.676 335.152,138.676C336.755,138.676 337.943,139.028 338.716,139.732C339.489,140.436 339.876,141.39 339.876,142.594C339.876,143.84 339.491,144.814 338.722,145.518C337.953,146.222 336.763,146.574 335.152,146.574ZM335.127,143.901C336.291,143.901 337.072,143.766 337.471,143.498C337.764,143.294 337.91,143.014 337.91,142.655C337.91,142.289 337.764,142.004 337.471,141.801C337.072,141.541 336.291,141.41 335.127,141.41C333.964,141.41 333.186,141.541 332.796,141.801C332.495,142.004 332.344,142.289 332.344,142.655C332.344,143.014 332.491,143.294 332.784,143.498C333.182,143.766 333.964,143.901 335.127,143.901ZM349.312,140.043L349.312,142.582L330.428,133.049L330.428,130.583L349.312,140.043ZM344.612,134.501C343.009,134.501 341.821,134.149 341.048,133.445C340.275,132.741 339.888,131.779 339.888,130.558C339.888,129.329 340.275,128.363 341.048,127.659C341.821,126.955 343.009,126.603 344.612,126.603C346.223,126.603 347.416,126.955 348.189,127.659C348.962,128.363 349.348,129.317 349.348,130.522C349.348,131.767 348.962,132.741 348.189,133.445C347.416,134.149 346.223,134.501 344.612,134.501ZM344.6,131.828C345.764,131.828 346.541,131.694 346.931,131.425C347.233,131.222 347.383,130.941 347.383,130.583C347.383,130.216 347.237,129.936 346.944,129.74C346.545,129.472 345.764,129.338 344.6,129.338C343.436,129.338 342.655,129.468 342.256,129.728C341.963,129.932 341.817,130.216 341.817,130.583C341.817,130.949 341.963,131.23 342.256,131.425C342.655,131.694 343.436,131.828 344.6,131.828Z"/>
            <path d="M353.889,124.589C352.441,123.914 351.33,123.438 350.557,123.161C349.784,122.884 348.893,122.628 347.884,122.392C346.875,122.156 345.916,121.981 345.009,121.867C344.101,121.753 343.172,121.696 342.22,121.696C340.283,121.696 338.45,121.903 336.72,122.319C334.991,122.734 332.893,123.499 330.428,124.613L330.428,122.282C332.177,121.053 334.033,120.099 335.994,119.419C337.955,118.74 339.945,118.4 341.963,118.4C343.664,118.4 345.487,118.669 347.432,119.206C349.613,119.816 351.765,120.821 353.889,122.221L353.889,124.589Z"/>
        </g>
        <g>
            <path d="M304.61,352.003L304.61,355.189L292.587,355.189C292.717,353.985 293.107,352.844 293.758,351.765C294.409,350.687 295.695,349.257 297.616,347.475C299.162,346.034 300.11,345.058 300.46,344.545C300.932,343.837 301.168,343.137 301.168,342.445C301.168,341.68 300.963,341.092 300.552,340.681C300.141,340.27 299.573,340.065 298.849,340.065C298.133,340.065 297.563,340.281 297.14,340.712C296.717,341.143 296.472,341.859 296.407,342.86L292.989,342.518C293.193,340.63 293.832,339.275 294.906,338.454C295.98,337.632 297.323,337.221 298.934,337.221C300.7,337.221 302.088,337.697 303.097,338.649C304.106,339.601 304.61,340.785 304.61,342.201C304.61,343.007 304.466,343.774 304.177,344.502C303.888,345.23 303.43,345.993 302.804,346.791C302.389,347.32 301.64,348.081 300.558,349.074C299.475,350.066 298.79,350.726 298.501,351.051C298.212,351.377 297.978,351.694 297.799,352.003L304.61,352.003Z"/>
            <path d="M312.728,337.221C314.462,337.221 315.817,337.839 316.793,339.076C317.957,340.541 318.539,342.97 318.539,346.364C318.539,349.749 317.953,352.182 316.781,353.664C315.812,354.884 314.462,355.495 312.728,355.495C310.987,355.495 309.583,354.825 308.517,353.486C307.451,352.148 306.918,349.761 306.918,346.327C306.918,342.958 307.504,340.533 308.675,339.052C309.644,337.831 310.995,337.221 312.728,337.221ZM312.728,340.065C312.313,340.065 311.943,340.197 311.617,340.462C311.292,340.726 311.039,341.2 310.86,341.884C310.624,342.771 310.506,344.264 310.506,346.364C310.506,348.463 310.612,349.906 310.824,350.691C311.035,351.476 311.302,351.999 311.623,352.26C311.945,352.52 312.313,352.65 312.728,352.65C313.143,352.65 313.513,352.518 313.839,352.254C314.164,351.989 314.417,351.515 314.596,350.831C314.832,349.953 314.95,348.463 314.95,346.364C314.95,344.264 314.844,342.822 314.632,342.036C314.421,341.251 314.154,340.726 313.833,340.462C313.511,340.197 313.143,340.065 312.728,340.065Z"/>
        </g>
        <g>
            <path d="M292.904,309.441L296.224,309.038C296.33,309.884 296.615,310.531 297.079,310.979C297.543,311.427 298.104,311.65 298.763,311.65C299.471,311.65 300.067,311.382 300.552,310.845C301.036,310.308 301.278,309.583 301.278,308.672C301.278,307.809 301.046,307.126 300.582,306.621C300.118,306.116 299.553,305.864 298.885,305.864C298.446,305.864 297.921,305.95 297.311,306.121L297.689,303.325C298.617,303.35 299.325,303.148 299.813,302.721C300.301,302.294 300.546,301.726 300.546,301.018C300.546,300.416 300.366,299.936 300.008,299.578C299.65,299.219 299.174,299.04 298.58,299.04C297.994,299.04 297.494,299.244 297.079,299.651C296.664,300.058 296.411,300.652 296.322,301.433L293.16,300.896C293.38,299.814 293.712,298.949 294.155,298.302C294.599,297.655 295.217,297.146 296.011,296.776C296.804,296.406 297.693,296.221 298.678,296.221C300.362,296.221 301.713,296.758 302.731,297.832C303.569,298.711 303.988,299.704 303.988,300.81C303.988,302.381 303.129,303.634 301.412,304.57C302.438,304.79 303.258,305.282 303.872,306.047C304.486,306.812 304.794,307.736 304.794,308.818C304.794,310.389 304.22,311.728 303.072,312.834C301.925,313.941 300.497,314.495 298.788,314.495C297.168,314.495 295.825,314.029 294.759,313.097C293.693,312.165 293.075,310.946 292.904,309.441Z"/>
            <path d="M312.728,296.221C314.462,296.221 315.817,296.839 316.793,298.076C317.957,299.541 318.539,301.97 318.539,305.364C318.539,308.749 317.953,311.182 316.781,312.664C315.812,313.884 314.462,314.495 312.728,314.495C310.987,314.495 309.583,313.825 308.517,312.486C307.451,311.148 306.918,308.761 306.918,305.327C306.918,301.958 307.504,299.533 308.675,298.052C309.644,296.831 310.995,296.221 312.728,296.221ZM312.728,299.065C312.313,299.065 311.943,299.197 311.617,299.462C311.292,299.726 311.039,300.2 310.86,300.884C310.624,301.771 310.506,303.264 310.506,305.364C310.506,307.463 310.612,308.906 310.824,309.691C311.035,310.476 311.302,310.999 311.623,311.26C311.945,311.52 312.313,311.65 312.728,311.65C313.143,311.65 313.513,311.518 313.839,311.254C314.164,310.989 314.417,310.515 314.596,309.831C314.832,308.953 314.95,307.463 314.95,305.364C314.95,303.264 314.844,301.822 314.632,301.036C314.421,300.251 314.154,299.726 313.833,299.462C313.511,299.197 313.143,299.065 312.728,299.065Z"/>
        </g>
        <g>
            <path d="M299.752,273.189L299.752,269.588L292.428,269.588L292.428,266.585L300.192,255.221L303.072,255.221L303.072,266.573L305.294,266.573L305.294,269.588L303.072,269.588L303.072,273.189L299.752,273.189ZM299.752,266.573L299.752,260.457L295.638,266.573L299.752,266.573Z"/>
            <path d="M312.728,255.221C314.462,255.221 315.817,255.839 316.793,257.076C317.957,258.541 318.539,260.97 318.539,264.364C318.539,267.749 317.953,270.182 316.781,271.664C315.812,272.884 314.462,273.495 312.728,273.495C310.987,273.495 309.583,272.825 308.517,271.486C307.451,270.148 306.918,267.761 306.918,264.327C306.918,260.958 307.504,258.533 308.675,257.052C309.644,255.831 310.995,255.221 312.728,255.221ZM312.728,258.065C312.313,258.065 311.943,258.197 311.617,258.462C311.292,258.726 311.039,259.2 310.86,259.884C310.624,260.771 310.506,262.264 310.506,264.364C310.506,266.463 310.612,267.906 310.824,268.691C311.035,269.476 311.302,269.999 311.623,270.26C311.945,270.52 312.313,270.65 312.728,270.65C313.143,270.65 313.513,270.518 313.839,270.254C314.164,269.989 314.417,269.515 314.596,268.831C314.832,267.953 314.95,266.463 314.95,264.364C314.95,262.264 314.844,260.822 314.632,260.036C314.421,259.251 314.154,258.726 313.833,258.462C313.511,258.197 313.143,258.065 312.728,258.065Z"/>
        </g>
        <g>
            <path d="M293.075,227.587L296.493,227.233C296.59,228.006 296.879,228.619 297.359,229.07C297.84,229.522 298.393,229.748 299.02,229.748C299.736,229.748 300.342,229.457 300.838,228.875C301.335,228.293 301.583,227.416 301.583,226.245C301.583,225.146 301.337,224.322 300.845,223.773C300.352,223.223 299.711,222.949 298.922,222.949C297.937,222.949 297.054,223.384 296.273,224.255L293.49,223.852L295.248,214.538L304.317,214.538L304.317,217.748L297.848,217.748L297.311,220.788C298.076,220.406 298.857,220.214 299.654,220.214C301.176,220.214 302.466,220.768 303.524,221.874C304.582,222.981 305.111,224.418 305.111,226.184C305.111,227.657 304.684,228.971 303.829,230.126C302.665,231.705 301.05,232.495 298.983,232.495C297.331,232.495 295.984,232.051 294.942,231.164C293.901,230.277 293.278,229.085 293.075,227.587Z"/>
            <path d="M312.728,214.221C314.462,214.221 315.817,214.839 316.793,216.076C317.957,217.541 318.539,219.97 318.539,223.364C318.539,226.749 317.953,229.182 316.781,230.664C315.812,231.884 314.462,232.495 312.728,232.495C310.987,232.495 309.583,231.825 308.517,230.486C307.451,229.148 306.918,226.761 306.918,223.327C306.918,219.958 307.504,217.533 308.675,216.052C309.644,214.831 310.995,214.221 312.728,214.221ZM312.728,217.065C312.313,217.065 311.943,217.197 311.617,217.462C311.292,217.726 311.039,218.2 310.86,218.884C310.624,219.771 310.506,221.264 310.506,223.364C310.506,225.463 310.612,226.906 310.824,227.691C311.035,228.476 311.302,228.999 311.623,229.26C311.945,229.52 312.313,229.65 312.728,229.65C313.143,229.65 313.513,229.518 313.839,229.254C314.164,228.989 314.417,228.515 314.596,227.831C314.832,226.953 314.95,225.463 314.95,223.364C314.95,221.264 314.844,219.822 314.632,219.036C314.421,218.251 314.154,217.726 313.833,217.462C313.511,217.197 313.143,217.065 312.728,217.065Z"/>
        </g>
        <g>
            <path d="M304.647,177.676L301.327,178.042C301.245,177.359 301.034,176.854 300.692,176.529C300.35,176.203 299.907,176.04 299.361,176.04C298.637,176.04 298.025,176.366 297.524,177.017C297.024,177.668 296.708,179.023 296.578,181.082C297.433,180.073 298.495,179.568 299.764,179.568C301.197,179.568 302.423,180.114 303.445,181.204C304.466,182.295 304.977,183.702 304.977,185.428C304.977,187.259 304.44,188.728 303.365,189.834C302.291,190.941 300.912,191.495 299.227,191.495C297.421,191.495 295.935,190.793 294.772,189.389C293.608,187.985 293.026,185.684 293.026,182.486C293.026,179.206 293.632,176.842 294.845,175.393C296.057,173.945 297.632,173.221 299.569,173.221C300.928,173.221 302.053,173.601 302.944,174.362C303.835,175.123 304.403,176.228 304.647,177.676ZM296.871,185.159C296.871,186.274 297.128,187.135 297.64,187.741C298.153,188.347 298.739,188.65 299.398,188.65C300.033,188.65 300.562,188.402 300.985,187.906C301.408,187.409 301.62,186.595 301.62,185.464C301.62,184.301 301.392,183.448 300.936,182.907C300.48,182.366 299.911,182.095 299.227,182.095C298.568,182.095 298.011,182.354 297.555,182.87C297.099,183.387 296.871,184.15 296.871,185.159Z"/>
            <path d="M312.728,173.221C314.462,173.221 315.817,173.839 316.793,175.076C317.957,176.541 318.539,178.97 318.539,182.364C318.539,185.749 317.953,188.182 316.781,189.664C315.812,190.884 314.462,191.495 312.728,191.495C310.987,191.495 309.583,190.825 308.517,189.486C307.451,188.148 306.918,185.761 306.918,182.327C306.918,178.958 307.504,176.533 308.675,175.052C309.644,173.831 310.995,173.221 312.728,173.221ZM312.728,176.065C312.313,176.065 311.943,176.197 311.617,176.462C311.292,176.726 311.039,177.2 310.86,177.884C310.624,178.771 310.506,180.264 310.506,182.364C310.506,184.463 310.612,185.906 310.824,186.691C311.035,187.476 311.302,187.999 311.623,188.26C311.945,188.52 312.313,188.65 312.728,188.65C313.143,188.65 313.513,188.518 313.839,188.254C314.164,187.989 314.417,187.515 314.596,186.831C314.832,185.953 314.95,184.463 314.95,182.364C314.95,180.264 314.844,178.822 314.632,178.036C314.421,177.251 314.154,176.726 313.833,176.462C313.511,176.197 313.143,176.065 312.728,176.065Z"/>
        </g>
        <g>
            <path d="M293.026,135.724L293.026,132.538L304.757,132.538L304.757,135.028C303.789,135.98 302.804,137.348 301.803,139.13C300.802,140.912 300.039,142.806 299.514,144.812C298.989,146.818 298.731,148.611 298.739,150.189L295.431,150.189C295.488,147.715 295.998,145.193 296.963,142.621C297.927,140.049 299.215,137.75 300.826,135.724L293.026,135.724Z"/>
            <path d="M312.728,132.221C314.462,132.221 315.817,132.839 316.793,134.076C317.957,135.541 318.539,137.97 318.539,141.364C318.539,144.749 317.953,147.182 316.781,148.664C315.812,149.884 314.462,150.495 312.728,150.495C310.987,150.495 309.583,149.825 308.517,148.486C307.451,147.148 306.918,144.761 306.918,141.327C306.918,137.958 307.504,135.533 308.675,134.052C309.644,132.831 310.995,132.221 312.728,132.221ZM312.728,135.065C312.313,135.065 311.943,135.197 311.617,135.462C311.292,135.726 311.039,136.2 310.86,136.884C310.624,137.771 310.506,139.264 310.506,141.364C310.506,143.463 310.612,144.906 310.824,145.691C311.035,146.476 311.302,146.999 311.623,147.26C311.945,147.52 312.313,147.65 312.728,147.65C313.143,147.65 313.513,147.518 313.839,147.254C314.164,146.989 314.417,146.515 314.596,145.831C314.832,144.953 314.95,143.463 314.95,141.364C314.95,139.264 314.844,137.822 314.632,137.036C314.421,136.251 314.154,135.726 313.833,135.462C313.511,135.197 313.143,135.065 312.728,135.065Z"/>
        </g>
        <g>
            <path d="M295.968,99.534C295.081,99.159 294.436,98.645 294.033,97.989C293.63,97.334 293.429,96.616 293.429,95.835C293.429,94.5 293.895,93.398 294.827,92.527C295.758,91.656 297.083,91.221 298.8,91.221C300.501,91.221 301.821,91.656 302.761,92.527C303.701,93.398 304.171,94.5 304.171,95.835C304.171,96.665 303.955,97.403 303.524,98.05C303.093,98.697 302.486,99.192 301.705,99.534C302.698,99.932 303.453,100.514 303.97,101.279C304.486,102.044 304.745,102.927 304.745,103.928C304.745,105.58 304.218,106.923 303.164,107.956C302.11,108.99 300.708,109.507 298.959,109.507C297.331,109.507 295.976,109.08 294.894,108.225C293.616,107.216 292.977,105.832 292.977,104.075C292.977,103.106 293.217,102.217 293.697,101.407C294.178,100.598 294.934,99.973 295.968,99.534ZM296.676,96.079C296.676,96.763 296.869,97.296 297.256,97.678C297.642,98.061 298.157,98.252 298.8,98.252C299.451,98.252 299.972,98.059 300.362,97.672C300.753,97.285 300.948,96.75 300.948,96.067C300.948,95.424 300.755,94.909 300.369,94.523C299.982,94.136 299.471,93.943 298.837,93.943C298.177,93.943 297.652,94.138 297.262,94.529C296.871,94.919 296.676,95.436 296.676,96.079ZM296.358,103.745C296.358,104.689 296.601,105.426 297.085,105.955C297.569,106.483 298.173,106.748 298.898,106.748C299.606,106.748 300.192,106.494 300.655,105.985C301.119,105.476 301.351,104.742 301.351,103.782C301.351,102.943 301.115,102.27 300.643,101.761C300.171,101.253 299.573,100.998 298.849,100.998C298.011,100.998 297.386,101.287 296.975,101.865C296.564,102.443 296.358,103.07 296.358,103.745Z"/>
            <path d="M312.728,91.221C314.462,91.221 315.817,91.839 316.793,93.076C317.957,94.541 318.539,96.97 318.539,100.364C318.539,103.749 317.953,106.182 316.781,107.664C315.812,108.884 314.462,109.495 312.728,109.495C310.987,109.495 309.583,108.825 308.517,107.486C307.451,106.148 306.918,103.761 306.918,100.327C306.918,96.958 307.504,94.533 308.675,93.052C309.644,91.831 310.995,91.221 312.728,91.221ZM312.728,94.065C312.313,94.065 311.943,94.197 311.617,94.462C311.292,94.726 311.039,95.2 310.86,95.884C310.624,96.771 310.506,98.264 310.506,100.364C310.506,102.463 310.612,103.906 310.824,104.691C311.035,105.476 311.302,105.999 311.623,106.26C311.945,106.52 312.313,106.65 312.728,106.65C313.143,106.65 313.513,106.518 313.839,106.254C314.164,105.989 314.417,105.515 314.596,104.831C314.832,103.953 314.95,102.463 314.95,100.364C314.95,98.264 314.844,96.822 314.632,96.036C314.421,95.251 314.154,94.726 313.833,94.462C313.511,94.197 313.143,94.065 312.728,94.065Z"/>
        </g>
        <g>
            <path d="M293.099,64.051L296.42,63.685C296.501,64.36 296.712,64.861 297.054,65.186C297.396,65.512 297.848,65.675 298.409,65.675C299.117,65.675 299.719,65.349 300.216,64.698C300.712,64.047 301.03,62.696 301.168,60.645C300.305,61.646 299.227,62.147 297.933,62.147C296.525,62.147 295.311,61.604 294.289,60.517C293.268,59.431 292.757,58.017 292.757,56.275C292.757,54.461 293.297,52.998 294.375,51.887C295.453,50.776 296.826,50.221 298.495,50.221C300.31,50.221 301.799,50.923 302.962,52.326C304.126,53.73 304.708,56.039 304.708,59.254C304.708,62.525 304.102,64.885 302.889,66.334C301.677,67.782 300.098,68.507 298.153,68.507C296.753,68.507 295.622,68.134 294.759,67.39C293.897,66.645 293.343,65.532 293.099,64.051ZM300.863,56.556C300.863,55.449 300.609,54.591 300.1,53.98C299.591,53.37 299.003,53.065 298.336,53.065C297.701,53.065 297.174,53.315 296.755,53.816C296.336,54.316 296.127,55.136 296.127,56.275C296.127,57.431 296.354,58.279 296.81,58.82C297.266,59.362 297.836,59.632 298.519,59.632C299.178,59.632 299.734,59.372 300.185,58.851C300.637,58.33 300.863,57.565 300.863,56.556Z"/>
            <path d="M312.728,50.221C314.462,50.221 315.817,50.839 316.793,52.076C317.957,53.541 318.539,55.97 318.539,59.364C318.539,62.749 317.953,65.182 316.781,66.664C315.812,67.884 314.462,68.495 312.728,68.495C310.987,68.495 309.583,67.825 308.517,66.486C307.451,65.148 306.918,62.761 306.918,59.327C306.918,55.958 307.504,53.533 308.675,52.052C309.644,50.831 310.995,50.221 312.728,50.221ZM312.728,53.065C312.313,53.065 311.943,53.197 311.617,53.462C311.292,53.726 311.039,54.2 310.86,54.884C310.624,55.771 310.506,57.264 310.506,59.364C310.506,61.463 310.612,62.906 310.824,63.691C311.035,64.476 311.302,64.999 311.623,65.26C311.945,65.52 312.313,65.65 312.728,65.65C313.143,65.65 313.513,65.518 313.839,65.254C314.164,64.989 314.417,64.515 314.596,63.831C314.832,62.953 314.95,61.463 314.95,59.364C314.95,57.264 314.844,55.822 314.632,55.036C314.421,54.251 314.154,53.726 313.833,53.462C313.511,53.197 313.143,53.065 312.728,53.065Z"/>
        </g>
        <g>
            <path d="M301.803,27.189L298.373,27.189L298.373,14.262C297.119,15.434 295.642,16.301 293.942,16.862L293.942,13.749C294.837,13.456 295.809,12.901 296.859,12.083C297.909,11.265 298.629,10.311 299.02,9.221L301.803,9.221L301.803,27.189Z"/>
            <path d="M312.728,9.221C314.462,9.221 315.817,9.839 316.793,11.076C317.957,12.541 318.539,14.97 318.539,18.364C318.539,21.749 317.953,24.182 316.781,25.664C315.812,26.884 314.462,27.495 312.728,27.495C310.987,27.495 309.583,26.825 308.517,25.486C307.451,24.148 306.918,21.761 306.918,18.327C306.918,14.958 307.504,12.533 308.675,11.052C309.644,9.831 310.995,9.221 312.728,9.221ZM312.728,12.065C312.313,12.065 311.943,12.197 311.617,12.462C311.292,12.726 311.039,13.2 310.86,13.884C310.624,14.771 310.506,16.264 310.506,18.364C310.506,20.463 310.612,21.906 310.824,22.691C311.035,23.476 311.302,23.999 311.623,24.26C311.945,24.52 312.313,24.65 312.728,24.65C313.143,24.65 313.513,24.518 313.839,24.254C314.164,23.989 314.417,23.515 314.596,22.831C314.832,21.953 314.95,20.463 314.95,18.364C314.95,16.264 314.844,14.822 314.632,14.036C314.421,13.251 314.154,12.726 313.833,12.462C313.511,12.197 313.143,12.065 312.728,12.065Z"/>
            <path d="M326.632,9.221C328.365,9.221 329.72,9.839 330.697,11.076C331.861,12.541 332.442,14.97 332.442,18.364C332.442,21.749 331.857,24.182 330.685,25.664C329.716,26.884 328.365,27.495 326.632,27.495C324.89,27.495 323.487,26.825 322.421,25.486C321.354,24.148 320.821,21.761 320.821,18.327C320.821,14.958 321.407,12.533 322.579,11.052C323.548,9.831 324.899,9.221 326.632,9.221ZM326.632,12.065C326.217,12.065 325.847,12.197 325.521,12.462C325.196,12.726 324.943,13.2 324.764,13.884C324.528,14.771 324.41,16.264 324.41,18.364C324.41,20.463 324.516,21.906 324.728,22.691C324.939,23.476 325.206,23.999 325.527,24.26C325.849,24.52 326.217,24.65 326.632,24.65C327.047,24.65 327.417,24.518 327.743,24.254C328.068,23.989 328.321,23.515 328.5,22.831C328.736,21.953 328.854,20.463 328.854,18.364C328.854,16.264 328.748,14.822 328.536,14.036C328.325,13.251 328.058,12.726 327.737,12.462C327.415,12.197 327.047,12.065 326.632,12.065Z"/>
        </g>
    </g>
</svg>
