<?xml version="1.0" encoding="UTF-8" standalone="no"?>
<!DOCTYPE svg PUBLIC "-//W3C//DTD SVG 1.1//EN" "http://www.w3.org/Graphics/SVG/1.1/DTD/svg11.dtd">
<svg width="357px" height="275px" version="1.1" xmlns="http://www.w3.org/2000/svg" xmlns:xlink="http://www.w3.org/1999/xlink" xml:space="preserve" xmlns:serif="http://www.serif.com/" style="fill-rule:evenodd;clip-rule:evenodd;stroke-linejoin:round;stroke-miterlimit:2;">
    <rect id="freq-hatch" x="0" y="0" width="356.929" height="274.866" style="fill:none;"/>
    <g>
        <g>
            <rect x="0.858" y="0.588" width="35.433" height="35.433"/>
            <rect x="41.858" y="0.588" width="35.433" height="35.433"/>
            <rect x="82.858" y="0.588" width="35.433" height="35.433"/>
            <rect x="123.858" y="0.588" width="35.433" height="35.433"/>
            <rect x="164.858" y="0.588" width="35.433" height="35.433"/>
            <rect x="205.858" y="0.588" width="35.433" height="35.433"/>
            <rect x="246.858" y="0.588" width="35.433" height="35.433"/>
            <rect x="0.858" y="41.588" width="35.433" height="35.433"/>
            <rect x="41.858" y="41.588" width="35.433" height="35.433"/>
            <rect x="82.858" y="41.588" width="35.433" height="35.433"/>
            <rect x="123.858" y="41.588" width="35.433" height="35.433"/>
            <rect x="164.858" y="41.588" width="35.433" height="35.433"/>
            <rect x="205.858" y="41.588" width="35.433" height="35.433"/>
            <rect x="246.858" y="41.588" width="35.433" height="35.433"/>
            <rect x="0.858" y="82.588" width="35.433" height="35.433"/>
            <rect x="41.858" y="82.588" width="35.433" height="35.433"/>
            <rect x="82.858" y="82.588" width="35.433" height="35.433"/>
            <rect x="123.858" y="82.588" width="35.433" height="35.433"/>
            <rect x="164.858" y="82.588" width="35.433" height="35.433"/>
            <rect x="205.858" y="82.588" width="35.433" height="35.433"/>
            <rect x="246.858" y="82.588" width="35.433" height="35.433"/>
            <rect x="0.858" y="123.588" width="35.433" height="35.433"/>
            <rect x="41.858" y="123.588" width="35.433" height="35.433"/>
            <rect x="82.858" y="123.588" width="35.433" height="35.433"/>
            <rect x="123.858" y="123.588" width="35.433" height="35.433"/>
            <rect x="164.858" y="123.588" width="35.433" height="35.433"/>
            <rect x="205.858" y="123.588" width="35.433" height="35.433"/>
            <rect x="246.858" y="123.588" width="35.433" height="35.433"/>
            <rect x="0.858" y="164.588" width="35.433" height="35.433"/>
            <rect x="41.858" y="164.588" width="35.433" height="35.433"/>
            <rect x="82.858" y="164.588" width="35.433" height="35.433"/>
            <rect x="123.858" y="164.588" width="35.433" height="35.433"/>
            <rect x="164.858" y="164.588" width="35.433" height="35.433"/>
            <rect x="205.858" y="164.588" width="35.433" height="35.433"/>
            <rect x="246.858" y="164.588" width="35.433" height="35.433"/>
        </g>
        <g>
            <path d="M12.75,222.605L9.564,222.605L9.564,210.581C10.768,210.711 11.91,211.102 12.988,211.753C14.066,212.404 15.497,213.689 17.279,215.61C18.719,217.156 19.696,218.104 20.209,218.454C20.917,218.926 21.616,219.162 22.308,219.162C23.073,219.162 23.661,218.957 24.072,218.546C24.483,218.135 24.689,217.567 24.689,216.843C24.689,216.127 24.473,215.557 24.042,215.134C23.61,214.711 22.894,214.467 21.893,214.402L22.235,210.984C24.123,211.187 25.478,211.826 26.3,212.9C27.122,213.974 27.533,215.317 27.533,216.928C27.533,218.694 27.057,220.082 26.105,221.091C25.152,222.1 23.968,222.605 22.552,222.605C21.747,222.605 20.98,222.46 20.251,222.171C19.523,221.882 18.76,221.425 17.962,220.798C17.434,220.383 16.673,219.634 15.68,218.552C14.687,217.47 14.028,216.784 13.702,216.495C13.377,216.206 13.059,215.972 12.75,215.793L12.75,222.605Z"/>
            <path d="M27.533,230.722C27.533,232.456 26.914,233.811 25.677,234.787C24.212,235.951 21.783,236.533 18.39,236.533C15.004,236.533 12.571,235.947 11.09,234.775C9.869,233.807 9.259,232.456 9.259,230.722C9.259,228.981 9.928,227.577 11.267,226.511C12.606,225.445 14.992,224.912 18.426,224.912C21.796,224.912 24.221,225.498 25.702,226.67C26.922,227.638 27.533,228.989 27.533,230.722ZM24.689,230.722C24.689,230.307 24.556,229.937 24.292,229.611C24.027,229.286 23.553,229.034 22.87,228.855C21.983,228.619 20.489,228.501 18.39,228.501C16.29,228.501 14.848,228.606 14.062,228.818C13.277,229.03 12.754,229.296 12.494,229.618C12.233,229.939 12.103,230.307 12.103,230.722C12.103,231.137 12.235,231.508 12.5,231.833C12.764,232.159 13.238,232.411 13.922,232.59C14.801,232.826 16.29,232.944 18.39,232.944C20.489,232.944 21.932,232.838 22.717,232.627C23.502,232.415 24.027,232.149 24.292,231.827C24.556,231.506 24.689,231.137 24.689,230.722Z"/>
        </g>
        <g>
            <path d="M55.313,210.898L55.715,214.218C54.869,214.324 54.222,214.609 53.775,215.073C53.327,215.537 53.103,216.098 53.103,216.757C53.103,217.465 53.372,218.062 53.909,218.546C54.446,219.03 55.17,219.272 56.082,219.272C56.944,219.272 57.628,219.04 58.132,218.576C58.637,218.112 58.889,217.547 58.889,216.88C58.889,216.44 58.804,215.915 58.633,215.305L61.428,215.683C61.404,216.611 61.605,217.319 62.033,217.807C62.46,218.296 63.027,218.54 63.735,218.54C64.338,218.54 64.818,218.361 65.176,218.003C65.534,217.645 65.713,217.168 65.713,216.574C65.713,215.988 65.51,215.488 65.103,215.073C64.696,214.658 64.102,214.406 63.32,214.316L63.858,211.154C64.94,211.374 65.805,211.706 66.452,212.149C67.098,212.593 67.607,213.211 67.977,214.005C68.348,214.798 68.533,215.687 68.533,216.672C68.533,218.357 67.996,219.708 66.921,220.725C66.043,221.563 65.05,221.982 63.943,221.982C62.372,221.982 61.119,221.124 60.183,219.406C59.963,220.432 59.471,221.252 58.706,221.866C57.941,222.481 57.018,222.788 55.935,222.788C54.365,222.788 53.026,222.214 51.919,221.067C50.812,219.919 50.259,218.491 50.259,216.782C50.259,215.162 50.725,213.82 51.657,212.754C52.588,211.687 53.807,211.069 55.313,210.898Z"/>
            <path d="M68.533,230.722C68.533,232.456 67.914,233.811 66.677,234.787C65.212,235.951 62.783,236.533 59.39,236.533C56.004,236.533 53.571,235.947 52.09,234.775C50.869,233.807 50.259,232.456 50.259,230.722C50.259,228.981 50.928,227.577 52.267,226.511C53.606,225.445 55.992,224.912 59.426,224.912C62.796,224.912 65.221,225.498 66.702,226.67C67.922,227.638 68.533,228.989 68.533,230.722ZM65.689,230.722C65.689,230.307 65.556,229.937 65.292,229.611C65.027,229.286 64.553,229.034 63.87,228.855C62.983,228.619 61.489,228.501 59.39,228.501C57.29,228.501 55.848,228.606 55.062,228.818C54.277,229.03 53.754,229.296 53.494,229.618C53.233,229.939 53.103,230.307 53.103,230.722C53.103,231.137 53.235,231.508 53.5,231.833C53.764,232.159 54.238,232.411 54.922,232.59C55.801,232.826 57.29,232.944 59.39,232.944C61.489,232.944 62.932,232.838 63.717,232.627C64.502,232.415 65.027,232.149 65.292,231.827C65.556,231.506 65.689,231.137 65.689,230.722Z"/>
        </g>
        <g>
            <path d="M91.564,217.746L95.165,217.746L95.165,210.422L98.168,210.422L109.533,218.186L109.533,221.067L98.18,221.067L98.18,223.288L95.165,223.288L95.165,221.067L91.564,221.067L91.564,217.746ZM98.18,217.746L104.296,217.746L98.18,213.632L98.18,217.746Z"/>
            <path d="M109.533,230.722C109.533,232.456 108.914,233.811 107.677,234.787C106.212,235.951 103.783,236.533 100.39,236.533C97.004,236.533 94.571,235.947 93.09,234.775C91.869,233.807 91.259,232.456 91.259,230.722C91.259,228.981 91.928,227.577 93.267,226.511C94.606,225.445 96.992,224.912 100.426,224.912C103.796,224.912 106.221,225.498 107.702,226.67C108.922,227.638 109.533,228.989 109.533,230.722ZM106.689,230.722C106.689,230.307 106.556,229.937 106.292,229.611C106.027,229.286 105.553,229.034 104.87,228.855C103.983,228.619 102.489,228.501 100.39,228.501C98.29,228.501 96.848,228.606 96.062,228.818C95.277,229.03 94.754,229.296 94.494,229.618C94.233,229.939 94.103,230.307 94.103,230.722C94.103,231.137 94.235,231.508 94.5,231.833C94.764,232.159 95.238,232.411 95.922,232.59C96.801,232.826 98.29,232.944 100.39,232.944C102.489,232.944 103.932,232.838 104.717,232.627C105.502,232.415 106.027,232.149 106.292,231.827C106.556,231.506 106.689,231.137 106.689,230.722Z"/>
        </g>
        <g>
            <path d="M137.166,211.069L137.52,214.487C136.747,214.585 136.135,214.874 135.683,215.354C135.231,215.834 135.005,216.387 135.005,217.014C135.005,217.73 135.296,218.336 135.878,218.833C136.46,219.329 137.337,219.577 138.509,219.577C139.608,219.577 140.431,219.331 140.981,218.839C141.53,218.346 141.805,217.706 141.805,216.916C141.805,215.931 141.369,215.048 140.499,214.267L140.901,211.484L150.215,213.242L150.215,222.312L147.005,222.312L147.005,215.842L143.965,215.305C144.348,216.07 144.539,216.851 144.539,217.649C144.539,219.17 143.986,220.46 142.879,221.518C141.772,222.576 140.336,223.105 138.57,223.105C137.097,223.105 135.783,222.678 134.627,221.823C133.048,220.66 132.259,219.044 132.259,216.977C132.259,215.325 132.702,213.978 133.589,212.937C134.476,211.895 135.669,211.272 137.166,211.069Z"/>
            <path d="M150.533,230.722C150.533,232.456 149.914,233.811 148.677,234.787C147.212,235.951 144.783,236.533 141.39,236.533C138.004,236.533 135.571,235.947 134.09,234.775C132.869,233.807 132.259,232.456 132.259,230.722C132.259,228.981 132.928,227.577 134.267,226.511C135.606,225.445 137.992,224.912 141.426,224.912C144.796,224.912 147.221,225.498 148.702,226.67C149.922,227.638 150.533,228.989 150.533,230.722ZM147.689,230.722C147.689,230.307 147.556,229.937 147.292,229.611C147.027,229.286 146.553,229.034 145.87,228.855C144.983,228.619 143.489,228.501 141.39,228.501C139.29,228.501 137.848,228.606 137.062,228.818C136.277,229.03 135.754,229.296 135.494,229.618C135.233,229.939 135.103,230.307 135.103,230.722C135.103,231.137 135.235,231.508 135.5,231.833C135.764,232.159 136.238,232.411 136.922,232.59C137.801,232.826 139.29,232.944 141.39,232.944C143.489,232.944 144.932,232.838 145.717,232.627C146.502,232.415 147.027,232.149 147.292,231.827C147.556,231.506 147.689,231.137 147.689,230.722Z"/>
        </g>
        <g>
            <path d="M187.077,222.641L186.711,219.321C187.395,219.24 187.899,219.028 188.225,218.686C188.55,218.344 188.713,217.901 188.713,217.356C188.713,216.631 188.387,216.019 187.736,215.518C187.085,215.018 185.73,214.703 183.671,214.572C184.681,215.427 185.185,216.489 185.185,217.758C185.185,219.191 184.64,220.418 183.549,221.439C182.459,222.46 181.051,222.971 179.326,222.971C177.495,222.971 176.026,222.434 174.919,221.36C173.812,220.285 173.259,218.906 173.259,217.221C173.259,215.415 173.961,213.93 175.365,212.766C176.768,211.602 179.069,211.02 182.268,211.02C185.547,211.02 187.911,211.626 189.36,212.839C190.809,214.052 191.533,215.626 191.533,217.563C191.533,218.922 191.152,220.047 190.391,220.938C189.631,221.829 188.526,222.397 187.077,222.641ZM179.594,214.865C178.479,214.865 177.619,215.122 177.013,215.634C176.406,216.147 176.103,216.733 176.103,217.392C176.103,218.027 176.351,218.556 176.848,218.979C177.344,219.402 178.158,219.614 179.289,219.614C180.453,219.614 181.305,219.386 181.847,218.93C182.388,218.475 182.658,217.905 182.658,217.221C182.658,216.562 182.4,216.005 181.883,215.549C181.366,215.093 180.603,214.865 179.594,214.865Z"/>
            <path d="M191.533,230.722C191.533,232.456 190.914,233.811 189.677,234.787C188.212,235.951 185.783,236.533 182.39,236.533C179.004,236.533 176.571,235.947 175.09,234.775C173.869,233.807 173.259,232.456 173.259,230.722C173.259,228.981 173.928,227.577 175.267,226.511C176.606,225.445 178.992,224.912 182.426,224.912C185.796,224.912 188.221,225.498 189.702,226.67C190.922,227.638 191.533,228.989 191.533,230.722ZM188.689,230.722C188.689,230.307 188.556,229.937 188.292,229.611C188.027,229.286 187.553,229.034 186.87,228.855C185.983,228.619 184.489,228.501 182.39,228.501C180.29,228.501 178.848,228.606 178.062,228.818C177.277,229.03 176.754,229.296 176.494,229.618C176.233,229.939 176.103,230.307 176.103,230.722C176.103,231.137 176.235,231.508 176.5,231.833C176.764,232.159 177.238,232.411 177.922,232.59C178.801,232.826 180.29,232.944 182.39,232.944C184.489,232.944 185.932,232.838 186.717,232.627C187.502,232.415 188.027,232.149 188.292,231.827C188.556,231.506 188.689,231.137 188.689,230.722Z"/>
        </g>
        <g>
            <path d="M229.029,211.02L232.215,211.02L232.215,222.751L229.725,222.751C228.773,221.783 227.406,220.798 225.624,219.797C223.841,218.796 221.947,218.033 219.941,217.508C217.935,216.983 216.143,216.725 214.564,216.733L214.564,213.425C217.038,213.482 219.561,213.993 222.132,214.957C224.704,215.921 227.003,217.209 229.029,218.82L229.029,211.02Z"/>
            <path d="M232.533,230.722C232.533,232.456 231.914,233.811 230.677,234.787C229.212,235.951 226.783,236.533 223.39,236.533C220.004,236.533 217.571,235.947 216.09,234.775C214.869,233.807 214.259,232.456 214.259,230.722C214.259,228.981 214.928,227.577 216.267,226.511C217.606,225.445 219.992,224.912 223.426,224.912C226.796,224.912 229.221,225.498 230.702,226.67C231.922,227.638 232.533,228.989 232.533,230.722ZM229.689,230.722C229.689,230.307 229.556,229.937 229.292,229.611C229.027,229.286 228.553,229.034 227.87,228.855C226.983,228.619 225.489,228.501 223.39,228.501C221.29,228.501 219.848,228.606 219.062,228.818C218.277,229.03 217.754,229.296 217.494,229.618C217.233,229.939 217.103,230.307 217.103,230.722C217.103,231.137 217.235,231.508 217.5,231.833C217.764,232.159 218.238,232.411 218.922,232.59C219.801,232.826 221.29,232.944 223.39,232.944C225.489,232.944 226.932,232.838 227.717,232.627C228.502,232.415 229.027,232.149 229.292,231.827C229.556,231.506 229.689,231.137 229.689,230.722Z"/>
        </g>
        <g>
            <path d="M265.22,213.962C265.594,213.075 266.109,212.43 266.764,212.027C267.419,211.624 268.137,211.423 268.919,211.423C270.253,211.423 271.356,211.889 272.227,212.821C273.097,213.753 273.533,215.077 273.533,216.794C273.533,218.495 273.097,219.815 272.227,220.755C271.356,221.695 270.253,222.165 268.919,222.165C268.088,222.165 267.35,221.95 266.703,221.518C266.056,221.087 265.562,220.481 265.22,219.699C264.821,220.692 264.239,221.447 263.474,221.964C262.709,222.481 261.826,222.739 260.825,222.739C259.173,222.739 257.83,222.212 256.797,221.158C255.763,220.104 255.247,218.702 255.247,216.953C255.247,215.325 255.674,213.97 256.528,212.888C257.538,211.61 258.921,210.971 260.679,210.971C261.647,210.971 262.536,211.211 263.346,211.692C264.156,212.172 264.78,212.929 265.22,213.962ZM268.674,214.67C267.991,214.67 267.458,214.863 267.075,215.25C266.693,215.636 266.502,216.151 266.502,216.794C266.502,217.445 266.695,217.966 267.081,218.357C267.468,218.747 268.003,218.943 268.687,218.943C269.33,218.943 269.844,218.749 270.231,218.363C270.617,217.976 270.811,217.465 270.811,216.831C270.811,216.172 270.615,215.647 270.225,215.256C269.834,214.865 269.317,214.67 268.674,214.67ZM261.008,214.353C260.064,214.353 259.328,214.595 258.799,215.079C258.27,215.563 258.005,216.167 258.005,216.892C258.005,217.6 258.26,218.186 258.768,218.65C259.277,219.113 260.011,219.345 260.972,219.345C261.81,219.345 262.483,219.109 262.992,218.637C263.501,218.165 263.755,217.567 263.755,216.843C263.755,216.005 263.466,215.38 262.888,214.969C262.31,214.558 261.684,214.353 261.008,214.353Z"/>
            <path d="M273.533,230.722C273.533,232.456 272.914,233.811 271.677,234.787C270.212,235.951 267.783,236.533 264.39,236.533C261.004,236.533 258.571,235.947 257.09,234.775C255.869,233.807 255.259,232.456 255.259,230.722C255.259,228.981 255.928,227.577 257.267,226.511C258.606,225.445 260.992,224.912 264.426,224.912C267.796,224.912 270.221,225.498 271.702,226.67C272.922,227.638 273.533,228.989 273.533,230.722ZM270.689,230.722C270.689,230.307 270.556,229.937 270.292,229.611C270.027,229.286 269.553,229.034 268.87,228.855C267.983,228.619 266.489,228.501 264.39,228.501C262.29,228.501 260.848,228.606 260.062,228.818C259.277,229.03 258.754,229.296 258.494,229.618C258.233,229.939 258.103,230.307 258.103,230.722C258.103,231.137 258.235,231.508 258.5,231.833C258.764,232.159 259.238,232.411 259.922,232.59C260.801,232.826 262.29,232.944 264.39,232.944C266.489,232.944 267.932,232.838 268.717,232.627C269.502,232.415 270.027,232.149 270.292,231.827C270.556,231.506 270.689,231.137 270.689,230.722Z"/>
        </g>
        <g>
            <path d="M304.938,188.003L304.938,191.189L292.914,191.189C293.044,189.985 293.435,188.844 294.086,187.765C294.737,186.687 296.023,185.257 297.943,183.475C299.489,182.034 300.437,181.058 300.787,180.545C301.259,179.837 301.495,179.137 301.495,178.445C301.495,177.68 301.29,177.092 300.879,176.681C300.468,176.27 299.9,176.065 299.176,176.065C298.46,176.065 297.89,176.281 297.467,176.712C297.044,177.143 296.8,177.859 296.735,178.86L293.317,178.518C293.52,176.63 294.159,175.275 295.233,174.454C296.307,173.632 297.65,173.221 299.262,173.221C301.028,173.221 302.415,173.697 303.424,174.649C304.433,175.601 304.938,176.785 304.938,178.201C304.938,179.007 304.793,179.774 304.504,180.502C304.216,181.23 303.758,181.993 303.131,182.791C302.716,183.32 301.967,184.081 300.885,185.074C299.803,186.066 299.117,186.726 298.828,187.051C298.539,187.377 298.305,187.694 298.126,188.003L304.938,188.003Z"/>
            <path d="M313.055,173.221C314.789,173.221 316.144,173.839 317.12,175.076C318.284,176.541 318.866,178.97 318.866,182.364C318.866,185.749 318.28,188.182 317.108,189.664C316.14,190.884 314.789,191.495 313.055,191.495C311.314,191.495 309.91,190.825 308.844,189.486C307.778,188.148 307.245,185.761 307.245,182.327C307.245,178.958 307.831,176.533 309.003,175.052C309.971,173.831 311.322,173.221 313.055,173.221ZM313.055,176.065C312.64,176.065 312.27,176.197 311.945,176.462C311.619,176.726 311.367,177.2 311.188,177.884C310.952,178.771 310.834,180.264 310.834,182.364C310.834,184.463 310.94,185.906 311.151,186.691C311.363,187.476 311.629,187.999 311.951,188.26C312.272,188.52 312.64,188.65 313.055,188.65C313.471,188.65 313.841,188.518 314.166,188.254C314.492,187.989 314.744,187.515 314.923,186.831C315.159,185.953 315.277,184.463 315.277,182.364C315.277,180.264 315.171,178.822 314.96,178.036C314.748,177.251 314.482,176.726 314.16,176.462C313.839,176.197 313.471,176.065 313.055,176.065Z"/>
        </g>
        <g>
            <path d="M74.668,266.685L74.668,248.79L86.936,248.79L86.936,251.817L78.281,251.817L78.281,256.053L85.752,256.053L85.752,259.08L78.281,259.08L78.281,266.685L74.668,266.685Z"/>
            <path d="M89.927,266.685L89.927,248.79L97.532,248.79C99.444,248.79 100.834,248.951 101.701,249.272C102.567,249.594 103.261,250.165 103.782,250.987C104.303,251.809 104.563,252.749 104.563,253.807C104.563,255.15 104.168,256.259 103.379,257.133C102.59,258.008 101.41,258.56 99.839,258.787C100.62,259.243 101.265,259.744 101.774,260.289C102.282,260.834 102.968,261.803 103.831,263.194L106.016,266.685L101.694,266.685L99.082,262.791C98.154,261.4 97.52,260.523 97.178,260.161C96.836,259.799 96.474,259.55 96.091,259.416C95.709,259.282 95.103,259.215 94.273,259.215L93.54,259.215L93.54,266.685L89.927,266.685ZM93.54,256.358L96.213,256.358C97.947,256.358 99.029,256.285 99.461,256.139C99.892,255.992 100.23,255.74 100.474,255.382C100.718,255.024 100.84,254.576 100.84,254.039C100.84,253.437 100.679,252.95 100.358,252.58C100.036,252.21 99.583,251.976 98.997,251.878C98.704,251.838 97.825,251.817 96.36,251.817L93.54,251.817L93.54,256.358Z"/>
            <path d="M107.969,266.685L107.969,248.79L121.238,248.79L121.238,251.817L111.582,251.817L111.582,255.785L120.567,255.785L120.567,258.8L111.582,258.8L111.582,263.67L121.58,263.67L121.58,266.685L107.969,266.685Z"/>
            <path d="M139.048,264.415C139.935,265.05 140.899,265.554 141.941,265.929L140.61,268.48C140.065,268.317 139.532,268.093 139.011,267.808C138.897,267.752 138.096,267.223 136.607,266.222C135.435,266.734 134.137,266.991 132.712,266.991C129.962,266.991 127.807,266.181 126.249,264.561C124.69,262.942 123.911,260.667 123.911,257.738C123.911,254.816 124.692,252.544 126.255,250.92C127.817,249.297 129.937,248.485 132.615,248.485C135.268,248.485 137.372,249.297 138.926,250.92C140.48,252.544 141.257,254.816 141.257,257.738C141.257,259.284 141.042,260.643 140.61,261.815C140.285,262.71 139.764,263.577 139.048,264.415ZM136.143,262.376C136.607,261.831 136.954,261.172 137.186,260.399C137.418,259.626 137.534,258.739 137.534,257.738C137.534,255.671 137.079,254.126 136.167,253.105C135.256,252.084 134.063,251.573 132.59,251.573C131.117,251.573 129.923,252.086 129.008,253.111C128.092,254.137 127.634,255.679 127.634,257.738C127.634,259.829 128.092,261.394 129.008,262.431C129.923,263.469 131.081,263.988 132.481,263.988C133.001,263.988 133.494,263.902 133.958,263.731C133.225,263.251 132.481,262.877 131.724,262.608L132.737,260.545C133.925,260.952 135.06,261.563 136.143,262.376Z"/>
            <path d="M156.699,271.947L154.343,271.947C153.098,270.067 152.15,268.114 151.499,266.087C150.848,264.061 150.523,262.1 150.523,260.204C150.523,257.852 150.925,255.626 151.731,253.526C152.431,251.703 153.318,250.023 154.392,248.485L156.736,248.485C155.621,250.951 154.854,253.048 154.435,254.777C154.016,256.507 153.806,258.34 153.806,260.277C153.806,261.611 153.93,262.979 154.179,264.378C154.427,265.778 154.767,267.109 155.198,268.37C155.483,269.2 155.983,270.392 156.699,271.947Z"/>
            <path d="M159.214,266.685L159.214,248.79L162.644,248.79L162.644,258.287L166.66,253.722L170.884,253.722L166.453,258.458L171.201,266.685L167.503,266.685L164.243,260.863L162.644,262.535L162.644,266.685L159.214,266.685Z"/>
            <path d="M173.276,266.685L173.276,248.79L176.89,248.79L176.89,255.833L183.97,255.833L183.97,248.79L187.583,248.79L187.583,266.685L183.97,266.685L183.97,258.861L176.89,258.861L176.89,266.685L173.276,266.685Z"/>
            <path d="M189.915,266.685L189.915,264.012L194.773,258.433C195.571,257.522 196.161,256.875 196.543,256.493C196.144,256.517 195.619,256.533 194.968,256.541L190.391,256.566L190.391,253.722L201.108,253.722L201.108,256.151L196.152,261.864L194.407,263.756C195.359,263.699 195.949,263.67 196.177,263.67L201.487,263.67L201.487,266.685L189.915,266.685Z"/>
            <path d="M202.842,271.947C203.517,270.498 203.993,269.387 204.27,268.614C204.547,267.841 204.803,266.95 205.039,265.941C205.275,264.932 205.45,263.973 205.564,263.066C205.678,262.159 205.735,261.229 205.735,260.277C205.735,258.34 205.527,256.507 205.112,254.777C204.697,253.048 203.932,250.951 202.817,248.485L205.149,248.485C206.378,250.234 207.332,252.09 208.012,254.051C208.691,256.012 209.031,258.002 209.031,260.02C209.031,261.721 208.762,263.544 208.225,265.489C207.615,267.67 206.61,269.823 205.21,271.947L202.842,271.947Z"/>
        </g>
        <g>
            <path d="M348.956,171.404L331.06,171.404L331.06,167.791L338.104,167.791L338.104,160.711L331.06,160.711L331.06,157.098L348.956,157.098L348.956,160.711L341.131,160.711L341.131,167.791L348.956,167.791L348.956,171.404Z"/>
            <path d="M348.956,137.225L348.956,141.155L344.891,142.718L344.891,149.871L348.956,151.348L348.956,155.181L331.06,148.211L331.06,144.39L348.956,137.225ZM341.876,143.878L335.235,146.343L341.876,148.76L341.876,143.878Z"/>
            <path d="M348.956,133.135L334.087,133.135L334.087,138.445L331.06,138.445L331.06,124.224L334.087,124.224L334.087,129.522L348.956,129.522L348.956,133.135Z"/>
            <path d="M342.376,110.443L343.487,106.939C345.44,107.476 346.891,108.369 347.839,109.619C348.787,110.868 349.261,112.453 349.261,114.373C349.261,116.75 348.449,118.703 346.826,120.233C345.202,121.763 342.982,122.528 340.167,122.528C337.188,122.528 334.875,121.758 333.227,120.22C331.579,118.682 330.755,116.66 330.755,114.153C330.755,111.964 331.402,110.186 332.696,108.819C333.461,108.005 334.559,107.395 335.992,106.988L336.846,110.565C335.919,110.776 335.186,111.218 334.649,111.889C334.112,112.56 333.843,113.376 333.843,114.337C333.843,115.663 334.319,116.739 335.272,117.565C336.224,118.391 337.766,118.804 339.898,118.804C342.16,118.804 343.772,118.397 344.732,117.584C345.692,116.77 346.172,115.712 346.172,114.41C346.172,113.45 345.867,112.624 345.257,111.932C344.647,111.24 343.686,110.744 342.376,110.443Z"/>
            <path d="M348.956,103.826L331.06,103.826L331.06,100.213L338.104,100.213L338.104,93.133L331.06,93.133L331.06,89.52L348.956,89.52L348.956,93.133L341.131,93.133L341.131,100.213L348.956,100.213L348.956,103.826Z"/>
            <path d="M354.217,73.174L354.217,75.53C352.337,76.776 350.384,77.724 348.357,78.375C346.331,79.026 344.37,79.351 342.474,79.351C340.122,79.351 337.896,78.948 335.796,78.143C333.974,77.443 332.293,76.556 330.755,75.482L330.755,73.138C333.221,74.253 335.318,75.02 337.048,75.439C338.777,75.858 340.61,76.068 342.547,76.068C343.882,76.068 345.249,75.943 346.648,75.695C348.048,75.447 349.379,75.107 350.64,74.676C351.47,74.391 352.662,73.891 354.217,73.174Z"/>
            <path d="M335.992,70.977L335.992,67.571L341.863,67.571C343.556,67.571 344.708,67.401 345.318,67.059C346.107,66.627 346.502,65.989 346.502,65.142C346.502,64.687 346.356,64.255 346.063,63.848C345.77,63.441 345.363,63.14 344.842,62.945C344.321,62.75 343.34,62.652 341.9,62.652L335.992,62.652L335.992,59.185L348.956,59.185L348.956,62.383L347.393,62.383C347.849,62.628 348.191,62.86 348.419,63.079C348.646,63.299 348.846,63.594 349.017,63.964C349.188,64.335 349.273,64.674 349.273,64.984C349.273,65.561 349.114,66.074 348.797,66.522C348.561,66.839 348.093,67.189 347.393,67.571L353.924,67.571L353.924,70.977L335.992,70.977Z"/>
            <path d="M335.992,56.39L335.992,53.228L337.762,53.228C336.386,52.097 335.699,50.75 335.699,49.188C335.699,48.358 335.87,47.637 336.211,47.027C336.553,46.417 337.07,45.916 337.762,45.526C337.07,44.956 336.553,44.341 336.211,43.682C335.87,43.023 335.699,42.319 335.699,41.57C335.699,40.618 335.892,39.813 336.279,39.153C336.665,38.494 337.233,38.002 337.982,37.676C338.535,37.44 339.43,37.322 340.667,37.322L348.956,37.322L348.956,40.753L341.546,40.753C340.26,40.753 339.43,40.871 339.056,41.107C338.567,41.424 338.323,41.912 338.323,42.571C338.323,43.052 338.47,43.503 338.763,43.926C339.056,44.35 339.485,44.655 340.051,44.842C340.616,45.029 341.509,45.123 342.73,45.123L348.956,45.123L348.956,48.553L341.851,48.553C340.59,48.553 339.776,48.614 339.41,48.736C339.044,48.858 338.771,49.047 338.592,49.304C338.413,49.56 338.323,49.908 338.323,50.347C338.323,50.876 338.466,51.352 338.751,51.776C339.035,52.199 339.446,52.502 339.983,52.685C340.521,52.868 341.412,52.96 342.657,52.96L348.956,52.96L348.956,56.39L335.992,56.39Z"/>
            <path d="M354.217,34.857C352.768,34.181 351.657,33.705 350.884,33.428C350.111,33.152 349.22,32.895 348.211,32.659C347.202,32.423 346.244,32.248 345.336,32.134C344.429,32.021 343.499,31.964 342.547,31.964C340.61,31.964 338.777,32.171 337.048,32.586C335.318,33.001 333.221,33.766 330.755,34.881L330.755,32.549C332.505,31.321 334.36,30.366 336.321,29.687C338.283,29.007 340.272,28.668 342.291,28.668C343.991,28.668 345.814,28.936 347.759,29.473C349.94,30.084 352.093,31.089 354.217,32.488L354.217,34.857Z"/>
        </g>
        <g>
            <path d="M293.231,145.504L296.552,145.101C296.657,145.947 296.942,146.594 297.406,147.042C297.87,147.49 298.431,147.713 299.091,147.713C299.799,147.713 300.395,147.445 300.879,146.908C301.363,146.371 301.605,145.646 301.605,144.735C301.605,143.872 301.373,143.189 300.91,142.684C300.446,142.179 299.88,141.927 299.213,141.927C298.773,141.927 298.248,142.013 297.638,142.184L298.016,139.388C298.944,139.413 299.652,139.211 300.14,138.784C300.629,138.357 300.873,137.789 300.873,137.081C300.873,136.479 300.694,135.999 300.336,135.641C299.978,135.282 299.502,135.103 298.908,135.103C298.322,135.103 297.821,135.307 297.406,135.714C296.991,136.121 296.739,136.715 296.649,137.496L293.488,136.959C293.707,135.877 294.039,135.012 294.483,134.365C294.926,133.718 295.545,133.209 296.338,132.839C297.131,132.469 298.021,132.284 299.005,132.284C300.69,132.284 302.041,132.821 303.058,133.895C303.896,134.774 304.315,135.767 304.315,136.873C304.315,138.444 303.457,139.697 301.74,140.633C302.765,140.853 303.585,141.345 304.199,142.11C304.814,142.875 305.121,143.799 305.121,144.881C305.121,146.452 304.547,147.791 303.4,148.897C302.252,150.004 300.824,150.558 299.115,150.558C297.496,150.558 296.153,150.092 295.087,149.16C294.021,148.228 293.402,147.009 293.231,145.504Z"/>
            <path d="M313.055,132.284C314.789,132.284 316.144,132.902 317.12,134.139C318.284,135.604 318.866,138.033 318.866,141.427C318.866,144.812 318.28,147.245 317.108,148.726C316.14,149.947 314.789,150.558 313.055,150.558C311.314,150.558 309.91,149.888 308.844,148.549C307.778,147.211 307.245,144.824 307.245,141.39C307.245,138.021 307.831,135.596 309.003,134.115C309.971,132.894 311.322,132.284 313.055,132.284ZM313.055,135.128C312.64,135.128 312.27,135.26 311.945,135.525C311.619,135.789 311.367,136.263 311.188,136.947C310.952,137.834 310.834,139.327 310.834,141.427C310.834,143.526 310.94,144.969 311.151,145.754C311.363,146.539 311.629,147.062 311.951,147.323C312.272,147.583 312.64,147.713 313.055,147.713C313.471,147.713 313.841,147.581 314.166,147.317C314.492,147.052 314.744,146.578 314.923,145.894C315.159,145.016 315.277,143.526 315.277,141.427C315.277,139.327 315.171,137.885 314.96,137.099C314.748,136.314 314.482,135.789 314.16,135.525C313.839,135.26 313.471,135.128 313.055,135.128Z"/>
        </g>
        <g>
            <path d="M300.079,109.252L300.079,105.651L292.755,105.651L292.755,102.648L300.519,91.284L303.4,91.284L303.4,102.636L305.621,102.636L305.621,105.651L303.4,105.651L303.4,109.252L300.079,109.252ZM300.079,102.636L300.079,96.52L295.966,102.636L300.079,102.636Z"/>
            <path d="M313.055,91.284C314.789,91.284 316.144,91.902 317.12,93.139C318.284,94.604 318.866,97.033 318.866,100.427C318.866,103.812 318.28,106.245 317.108,107.726C316.14,108.947 314.789,109.558 313.055,109.558C311.314,109.558 309.91,108.888 308.844,107.549C307.778,106.211 307.245,103.824 307.245,100.39C307.245,97.021 307.831,94.596 309.003,93.115C309.971,91.894 311.322,91.284 313.055,91.284ZM313.055,94.128C312.64,94.128 312.27,94.26 311.945,94.525C311.619,94.789 311.367,95.263 311.188,95.947C310.952,96.834 310.834,98.327 310.834,100.427C310.834,102.526 310.94,103.969 311.151,104.754C311.363,105.539 311.629,106.062 311.951,106.323C312.272,106.583 312.64,106.713 313.055,106.713C313.471,106.713 313.841,106.581 314.166,106.317C314.492,106.052 314.744,105.578 314.923,104.894C315.159,104.016 315.277,102.526 315.277,100.427C315.277,98.327 315.171,96.885 314.96,96.099C314.748,95.314 314.482,94.789 314.16,94.525C313.839,94.26 313.471,94.128 313.055,94.128Z"/>
        </g>
        <g>
            <path d="M293.402,63.65L296.82,63.296C296.918,64.069 297.207,64.682 297.687,65.133C298.167,65.585 298.72,65.811 299.347,65.811C300.063,65.811 300.669,65.52 301.166,64.938C301.662,64.356 301.91,63.479 301.91,62.308C301.91,61.209 301.664,60.385 301.172,59.836C300.68,59.286 300.039,59.012 299.249,59.012C298.265,59.012 297.382,59.447 296.6,60.318L293.817,59.915L295.575,50.601L304.645,50.601L304.645,53.811L298.175,53.811L297.638,56.851C298.403,56.469 299.184,56.277 299.982,56.277C301.504,56.277 302.793,56.831 303.851,57.937C304.909,59.044 305.438,60.481 305.438,62.247C305.438,63.719 305.011,65.034 304.157,66.189C302.993,67.768 301.377,68.558 299.31,68.558C297.658,68.558 296.312,68.114 295.27,67.227C294.228,66.34 293.606,65.148 293.402,63.65Z"/>
            <path d="M313.055,50.284C314.789,50.284 316.144,50.902 317.12,52.139C318.284,53.604 318.866,56.033 318.866,59.427C318.866,62.812 318.28,65.245 317.108,66.726C316.14,67.947 314.789,68.558 313.055,68.558C311.314,68.558 309.91,67.888 308.844,66.549C307.778,65.211 307.245,62.824 307.245,59.39C307.245,56.021 307.831,53.596 309.003,52.115C309.971,50.894 311.322,50.284 313.055,50.284ZM313.055,53.128C312.64,53.128 312.27,53.26 311.945,53.525C311.619,53.789 311.367,54.263 311.188,54.947C310.952,55.834 310.834,57.327 310.834,59.427C310.834,61.526 310.94,62.969 311.151,63.754C311.363,64.539 311.629,65.062 311.951,65.323C312.272,65.583 312.64,65.713 313.055,65.713C313.471,65.713 313.841,65.581 314.166,65.317C314.492,65.052 314.744,64.578 314.923,63.894C315.159,63.016 315.277,61.526 315.277,59.427C315.277,57.327 315.171,55.885 314.96,55.099C314.748,54.314 314.482,53.789 314.16,53.525C313.839,53.26 313.471,53.128 313.055,53.128Z"/>
        </g>
        <g>
            <path d="M304.974,13.739L301.654,14.105C301.573,13.422 301.361,12.917 301.019,12.592C300.678,12.266 300.234,12.103 299.689,12.103C298.965,12.103 298.352,12.429 297.852,13.08C297.351,13.731 297.036,15.086 296.906,17.145C297.76,16.136 298.822,15.631 300.092,15.631C301.524,15.631 302.751,16.177 303.772,17.267C304.793,18.358 305.304,19.765 305.304,21.491C305.304,23.322 304.767,24.791 303.693,25.897C302.618,27.004 301.239,27.558 299.555,27.558C297.748,27.558 296.263,26.856 295.099,25.452C293.935,24.048 293.353,21.747 293.353,18.549C293.353,15.269 293.96,12.905 295.172,11.456C296.385,10.008 297.959,9.284 299.896,9.284C301.255,9.284 302.38,9.664 303.272,10.425C304.163,11.186 304.73,12.291 304.974,13.739ZM297.199,21.222C297.199,22.337 297.455,23.198 297.968,23.804C298.48,24.41 299.066,24.713 299.725,24.713C300.36,24.713 300.889,24.465 301.312,23.969C301.736,23.472 301.947,22.658 301.947,21.527C301.947,20.364 301.719,19.511 301.264,18.97C300.808,18.429 300.238,18.158 299.555,18.158C298.895,18.158 298.338,18.417 297.882,18.933C297.426,19.45 297.199,20.213 297.199,21.222Z"/>
            <path d="M313.055,9.284C314.789,9.284 316.144,9.902 317.12,11.139C318.284,12.604 318.866,15.033 318.866,18.427C318.866,21.812 318.28,24.245 317.108,25.726C316.14,26.947 314.789,27.558 313.055,27.558C311.314,27.558 309.91,26.888 308.844,25.549C307.778,24.211 307.245,21.824 307.245,18.39C307.245,15.021 307.831,12.596 309.003,11.115C309.971,9.894 311.322,9.284 313.055,9.284ZM313.055,12.128C312.64,12.128 312.27,12.26 311.945,12.525C311.619,12.789 311.367,13.263 311.188,13.947C310.952,14.834 310.834,16.327 310.834,18.427C310.834,20.526 310.94,21.969 311.151,22.754C311.363,23.539 311.629,24.062 311.951,24.323C312.272,24.583 312.64,24.713 313.055,24.713C313.471,24.713 313.841,24.581 314.166,24.317C314.492,24.052 314.744,23.578 314.923,22.894C315.159,22.016 315.277,20.526 315.277,18.427C315.277,16.327 315.171,14.885 314.96,14.099C314.748,13.314 314.482,12.789 314.16,12.525C313.839,12.26 313.471,12.128 313.055,12.128Z"/>
        </g>
    </g>
</svg>
