<?xml version="1.0" encoding="UTF-8" standalone="no"?>
<!DOCTYPE svg PUBLIC "-//W3C//DTD SVG 1.1//EN" "http://www.w3.org/Graphics/SVG/1.1/DTD/svg11.dtd">
<svg width="480px" height="480px" version="1.1" xmlns="http://www.w3.org/2000/svg" xmlns:xlink="http://www.w3.org/1999/xlink" xml:space="preserve" xmlns:serif="http://www.serif.com/" style="fill-rule:evenodd;clip-rule:evenodd;stroke-linejoin:round;stroke-miterlimit:2;">
    <rect id="speed-freq" x="0" y="0" width="479.866" height="479.803" style="fill:none;"/>
    <g>
        <g>
            <rect x="1" y="0.588" width="35.433" height="35.433"/>
            <rect x="1" y="41.588" width="35.433" height="35.433"/>
            <rect x="42" y="0.588" width="35.433" height="35.433"/>
            <rect x="42" y="41.588" width="35.433" height="35.433"/>
            <rect x="83" y="0.588" width="35.433" height="35.433"/>
            <rect x="83" y="41.588" width="35.433" height="35.433"/>
            <rect x="124" y="0.588" width="35.433" height="35.433"/>
            <rect x="124" y="41.588" width="35.433" height="35.433"/>
            <rect x="165" y="0.588" width="35.433" height="35.433"/>
            <rect x="165" y="41.588" width="35.433" height="35.433"/>
            <rect x="206" y="0.588" width="35.433" height="35.433"/>
            <rect x="206" y="41.588" width="35.433" height="35.433"/>
            <rect x="247" y="0.588" width="35.433" height="35.433"/>
            <rect x="247" y="41.588" width="35.433" height="35.433"/>
            <rect x="288" y="0.588" width="35.433" height="35.433"/>
            <rect x="288" y="41.588" width="35.433" height="35.433"/>
            <rect x="329" y="0.588" width="35.433" height="35.433"/>
            <rect x="329" y="41.588" width="35.433" height="35.433"/>
            <rect x="370" y="0.588" width="35.433" height="35.433"/>
            <rect x="370" y="41.588" width="35.433" height="35.433"/>
            <rect x="1" y="82.588" width="35.433" height="35.433"/>
            <rect x="42" y="82.588" width="35.433" height="35.433"/>
            <rect x="83" y="82.588" width="35.433" height="35.433"/>
            <rect x="124" y="82.588" width="35.433" height="35.433"/>
            <rect x="165" y="82.588" width="35.433" height="35.433"/>
            <rect x="206" y="82.588" width="35.433" height="35.433"/>
            <rect x="247" y="82.588" width="35.433" height="35.433"/>
            <rect x="288" y="82.588" width="35.433" height="35.433"/>
            <rect x="329" y="82.588" width="35.433" height="35.433"/>
            <rect x="370" y="82.588" width="35.433" height="35.433"/>
            <rect x="1" y="123.588" width="35.433" height="35.433"/>
            <rect x="42" y="123.588" width="35.433" height="35.433"/>
            <rect x="83" y="123.588" width="35.433" height="35.433"/>
            <rect x="124" y="123.588" width="35.433" height="35.433"/>
            <rect x="165" y="123.588" width="35.433" height="35.433"/>
            <rect x="206" y="123.588" width="35.433" height="35.433"/>
            <rect x="247" y="123.588" width="35.433" height="35.433"/>
            <rect x="288" y="123.588" width="35.433" height="35.433"/>
            <rect x="329" y="123.588" width="35.433" height="35.433"/>
            <rect x="370" y="123.588" width="35.433" height="35.433"/>
            <rect x="1" y="164.588" width="35.433" height="35.433"/>
            <rect x="42" y="164.588" width="35.433" height="35.433"/>
            <rect x="83" y="164.588" width="35.433" height="35.433"/>
            <rect x="124" y="164.588" width="35.433" height="35.433"/>
            <rect x="165" y="164.588" width="35.433" height="35.433"/>
            <rect x="206" y="164.588" width="35.433" height="35.433"/>
            <rect x="247" y="164.588" width="35.433" height="35.433"/>
            <rect x="288" y="164.588" width="35.433" height="35.433"/>
            <rect x="329" y="164.588" width="35.433" height="35.433"/>
            <rect x="370" y="164.588" width="35.433" height="35.433"/>
            <rect x="1" y="205.588" width="35.433" height="35.433"/>
            <rect x="42" y="205.588" width="35.433" height="35.433"/>
            <rect x="83" y="205.588" width="35.433" height="35.433"/>
            <rect x="124" y="205.588" width="35.433" height="35.433"/>
            <rect x="165" y="205.588" width="35.433" height="35.433"/>
            <rect x="206" y="205.588" width="35.433" height="35.433"/>
            <rect x="247" y="205.588" width="35.433" height="35.433"/>
            <rect x="288" y="205.588" width="35.433" height="35.433"/>
            <rect x="329" y="205.588" width="35.433" height="35.433"/>
            <rect x="370" y="205.588" width="35.433" height="35.433"/>
            <rect x="1" y="246.588" width="35.433" height="35.433"/>
            <rect x="42" y="246.588" width="35.433" height="35.433"/>
            <rect x="83" y="246.588" width="35.433" height="35.433"/>
            <rect x="124" y="246.588" width="35.433" height="35.433"/>
            <rect x="165" y="246.588" width="35.433" height="35.433"/>
            <rect x="206" y="246.588" width="35.433" height="35.433"/>
            <rect x="247" y="246.588" width="35.433" height="35.433"/>
            <rect x="288" y="246.588" width="35.433" height="35.433"/>
            <rect x="329" y="246.588" width="35.433" height="35.433"/>
            <rect x="370" y="246.588" width="35.433" height="35.433"/>
            <rect x="1" y="287.588" width="35.433" height="35.433"/>
            <rect x="42" y="287.588" width="35.433" height="35.433"/>
            <rect x="83" y="287.588" width="35.433" height="35.433"/>
            <rect x="124" y="287.588" width="35.433" height="35.433"/>
            <rect x="165" y="287.588" width="35.433" height="35.433"/>
            <rect x="206" y="287.588" width="35.433" height="35.433"/>
            <rect x="247" y="287.588" width="35.433" height="35.433"/>
            <rect x="288" y="287.588" width="35.433" height="35.433"/>
            <rect x="329" y="287.588" width="35.433" height="35.433"/>
            <rect x="370" y="287.588" width="35.433" height="35.433"/>
            <rect x="1" y="328.588" width="35.433" height="35.433"/>
            <rect x="42" y="328.588" width="35.433" height="35.433"/>
            <rect x="83" y="328.588" width="35.433" height="35.433"/>
            <rect x="124" y="328.588" width="35.433" height="35.433"/>
            <rect x="165" y="328.588" width="35.433" height="35.433"/>
            <rect x="206" y="328.588" width="35.433" height="35.433"/>
            <rect x="247" y="328.588" width="35.433" height="35.433"/>
            <rect x="288" y="328.588" width="35.433" height="35.433"/>
            <rect x="329" y="328.588" width="35.433" height="35.433"/>
            <rect x="370" y="328.588" width="35.433" height="35.433"/>
            <rect x="1" y="369.588" width="35.433" height="35.433"/>
            <rect x="42" y="369.588" width="35.433" height="35.433"/>
            <rect x="83" y="369.588" width="35.433" height="35.433"/>
            <rect x="124" y="369.588" width="35.433" height="35.433"/>
            <rect x="165" y="369.588" width="35.433" height="35.433"/>
            <rect x="206" y="369.588" width="35.433" height="35.433"/>
            <rect x="247" y="369.588" width="35.433" height="35.433"/>
            <rect x="288" y="369.588" width="35.433" height="35.433"/>
            <rect x="329" y="369.588" width="35.433" height="35.433"/>
            <rect x="370" y="369.588" width="35.433" height="35.433"/>
        </g>
        <g>
            <path d="M9.769,424.797L9.769,421.367L22.696,421.367C21.524,420.114 20.657,418.637 20.096,416.936L23.209,416.936C23.502,417.831 24.057,418.803 24.875,419.853C25.693,420.903 26.647,421.623 27.738,422.014L27.738,424.797L9.769,424.797Z"/>
            <path d="M27.738,435.722C27.738,437.456 27.119,438.811 25.882,439.787C24.417,440.951 21.988,441.533 18.594,441.533C15.209,441.533 12.776,440.947 11.295,439.775C10.074,438.807 9.464,437.456 9.464,435.722C9.464,433.981 10.133,432.577 11.472,431.511C12.81,430.445 15.197,429.912 18.631,429.912C22,429.912 24.425,430.498 25.906,431.67C27.127,432.638 27.738,433.989 27.738,435.722ZM24.893,435.722C24.893,435.307 24.761,434.937 24.497,434.611C24.232,434.286 23.758,434.034 23.074,433.855C22.187,433.619 20.694,433.501 18.594,433.501C16.495,433.501 15.052,433.606 14.267,433.818C13.482,434.03 12.959,434.296 12.698,434.618C12.438,434.939 12.308,435.307 12.308,435.722C12.308,436.137 12.44,436.508 12.705,436.833C12.969,437.159 13.443,437.411 14.127,437.59C15.006,437.826 16.495,437.944 18.594,437.944C20.694,437.944 22.137,437.838 22.922,437.627C23.707,437.415 24.232,437.149 24.497,436.827C24.761,436.506 24.893,436.137 24.893,435.722Z"/>
        </g>
        <g>
            <path d="M53.892,427.605L50.706,427.605L50.706,415.581C51.91,415.711 53.052,416.102 54.13,416.753C55.208,417.404 56.638,418.689 58.421,420.61C59.861,422.156 60.838,423.104 61.35,423.454C62.058,423.926 62.758,424.162 63.45,424.162C64.215,424.162 64.803,423.957 65.214,423.546C65.625,423.135 65.83,422.567 65.83,421.843C65.83,421.127 65.615,420.557 65.183,420.134C64.752,419.711 64.036,419.467 63.035,419.402L63.377,415.984C65.265,416.187 66.62,416.826 67.442,417.9C68.264,418.974 68.675,420.317 68.675,421.928C68.675,423.694 68.198,425.082 67.246,426.091C66.294,427.1 65.11,427.605 63.694,427.605C62.888,427.605 62.121,427.46 61.393,427.171C60.665,426.882 59.902,426.425 59.104,425.798C58.575,425.383 57.814,424.634 56.822,423.552C55.829,422.47 55.169,421.784 54.844,421.495C54.518,421.206 54.201,420.972 53.892,420.793L53.892,427.605Z"/>
            <path d="M68.675,435.722C68.675,437.456 68.056,438.811 66.819,439.787C65.354,440.951 62.925,441.533 59.531,441.533C56.146,441.533 53.713,440.947 52.232,439.775C51.011,438.807 50.401,437.456 50.401,435.722C50.401,433.981 51.07,432.577 52.409,431.511C53.747,430.445 56.134,429.912 59.568,429.912C62.937,429.912 65.362,430.498 66.843,431.67C68.064,432.638 68.675,433.989 68.675,435.722ZM65.83,435.722C65.83,435.307 65.698,434.937 65.434,434.611C65.169,434.286 64.695,434.034 64.011,433.855C63.124,433.619 61.631,433.501 59.531,433.501C57.432,433.501 55.989,433.606 55.204,433.818C54.419,434.03 53.896,434.296 53.635,434.618C53.375,434.939 53.245,435.307 53.245,435.722C53.245,436.137 53.377,436.508 53.642,436.833C53.906,437.159 54.38,437.411 55.064,437.59C55.943,437.826 57.432,437.944 59.531,437.944C61.631,437.944 63.074,437.838 63.859,437.627C64.644,437.415 65.169,437.149 65.434,436.827C65.698,436.506 65.83,436.137 65.83,435.722Z"/>
        </g>
        <g>
            <path d="M96.454,415.898L96.857,419.218C96.011,419.324 95.364,419.609 94.916,420.073C94.469,420.537 94.245,421.098 94.245,421.757C94.245,422.465 94.513,423.062 95.051,423.546C95.588,424.03 96.312,424.272 97.223,424.272C98.086,424.272 98.77,424.04 99.274,423.576C99.779,423.112 100.031,422.547 100.031,421.88C100.031,421.44 99.946,420.915 99.775,420.305L102.57,420.683C102.546,421.611 102.747,422.319 103.174,422.807C103.602,423.296 104.169,423.54 104.877,423.54C105.479,423.54 105.96,423.361 106.318,423.003C106.676,422.645 106.855,422.168 106.855,421.574C106.855,420.988 106.651,420.488 106.244,420.073C105.837,419.658 105.243,419.406 104.462,419.316L104.999,416.154C106.082,416.374 106.946,416.706 107.593,417.149C108.24,417.593 108.749,418.211 109.119,419.005C109.489,419.798 109.675,420.687 109.675,421.672C109.675,423.357 109.137,424.708 108.063,425.725C107.184,426.563 106.191,426.982 105.085,426.982C103.514,426.982 102.261,426.124 101.325,424.406C101.105,425.432 100.613,426.252 99.848,426.866C99.083,427.481 98.159,427.788 97.077,427.788C95.506,427.788 94.168,427.214 93.061,426.067C91.954,424.919 91.401,423.491 91.401,421.782C91.401,420.162 91.867,418.82 92.798,417.754C93.73,416.687 94.949,416.069 96.454,415.898Z"/>
            <path d="M109.675,435.722C109.675,437.456 109.056,438.811 107.819,439.787C106.354,440.951 103.925,441.533 100.531,441.533C97.146,441.533 94.713,440.947 93.232,439.775C92.011,438.807 91.401,437.456 91.401,435.722C91.401,433.981 92.07,432.577 93.409,431.511C94.747,430.445 97.134,429.912 100.568,429.912C103.937,429.912 106.362,430.498 107.843,431.67C109.064,432.638 109.675,433.989 109.675,435.722ZM106.83,435.722C106.83,435.307 106.698,434.937 106.434,434.611C106.169,434.286 105.695,434.034 105.011,433.855C104.124,433.619 102.631,433.501 100.531,433.501C98.432,433.501 96.989,433.606 96.204,433.818C95.419,434.03 94.896,434.296 94.635,434.618C94.375,434.939 94.245,435.307 94.245,435.722C94.245,436.137 94.377,436.508 94.642,436.833C94.906,437.159 95.38,437.411 96.064,437.59C96.943,437.826 98.432,437.944 100.531,437.944C102.631,437.944 104.074,437.838 104.859,437.627C105.644,437.415 106.169,437.149 106.434,436.827C106.698,436.506 106.83,436.137 106.83,435.722Z"/>
        </g>
        <g>
            <path d="M132.706,422.746L136.307,422.746L136.307,415.422L139.31,415.422L150.675,423.186L150.675,426.067L139.322,426.067L139.322,428.288L136.307,428.288L136.307,426.067L132.706,426.067L132.706,422.746ZM139.322,422.746L145.438,422.746L139.322,418.632L139.322,422.746Z"/>
            <path d="M150.675,435.722C150.675,437.456 150.056,438.811 148.819,439.787C147.354,440.951 144.925,441.533 141.531,441.533C138.146,441.533 135.713,440.947 134.232,439.775C133.011,438.807 132.401,437.456 132.401,435.722C132.401,433.981 133.07,432.577 134.409,431.511C135.747,430.445 138.134,429.912 141.568,429.912C144.937,429.912 147.362,430.498 148.843,431.67C150.064,432.638 150.675,433.989 150.675,435.722ZM147.83,435.722C147.83,435.307 147.698,434.937 147.434,434.611C147.169,434.286 146.695,434.034 146.011,433.855C145.124,433.619 143.631,433.501 141.531,433.501C139.432,433.501 137.989,433.606 137.204,433.818C136.419,434.03 135.896,434.296 135.635,434.618C135.375,434.939 135.245,435.307 135.245,435.722C135.245,436.137 135.377,436.508 135.642,436.833C135.906,437.159 136.38,437.411 137.064,437.59C137.943,437.826 139.432,437.944 141.531,437.944C143.631,437.944 145.074,437.838 145.859,437.627C146.644,437.415 147.169,437.149 147.434,436.827C147.698,436.506 147.83,436.137 147.83,435.722Z"/>
        </g>
        <g>
            <path d="M178.308,416.069L178.662,419.487C177.889,419.585 177.276,419.874 176.825,420.354C176.373,420.834 176.147,421.387 176.147,422.014C176.147,422.73 176.438,423.336 177.02,423.833C177.602,424.329 178.479,424.577 179.651,424.577C180.749,424.577 181.573,424.331 182.123,423.839C182.672,423.346 182.947,422.706 182.947,421.916C182.947,420.931 182.511,420.048 181.64,419.267L182.043,416.484L191.357,418.242L191.357,427.312L188.147,427.312L188.147,420.842L185.107,420.305C185.49,421.07 185.681,421.851 185.681,422.649C185.681,424.17 185.128,425.46 184.021,426.518C182.914,427.576 181.478,428.105 179.712,428.105C178.239,428.105 176.924,427.678 175.769,426.823C174.19,425.66 173.401,424.044 173.401,421.977C173.401,420.325 173.844,418.978 174.731,417.937C175.618,416.895 176.81,416.272 178.308,416.069Z"/>
            <path d="M191.675,435.722C191.675,437.456 191.056,438.811 189.819,439.787C188.354,440.951 185.925,441.533 182.531,441.533C179.146,441.533 176.713,440.947 175.232,439.775C174.011,438.807 173.401,437.456 173.401,435.722C173.401,433.981 174.07,432.577 175.409,431.511C176.747,430.445 179.134,429.912 182.568,429.912C185.937,429.912 188.362,430.498 189.843,431.67C191.064,432.638 191.675,433.989 191.675,435.722ZM188.83,435.722C188.83,435.307 188.698,434.937 188.434,434.611C188.169,434.286 187.695,434.034 187.011,433.855C186.124,433.619 184.631,433.501 182.531,433.501C180.432,433.501 178.989,433.606 178.204,433.818C177.419,434.03 176.896,434.296 176.635,434.618C176.375,434.939 176.245,435.307 176.245,435.722C176.245,436.137 176.377,436.508 176.642,436.833C176.906,437.159 177.38,437.411 178.064,437.59C178.943,437.826 180.432,437.944 182.531,437.944C184.631,437.944 186.074,437.838 186.859,437.627C187.644,437.415 188.169,437.149 188.434,436.827C188.698,436.506 188.83,436.137 188.83,435.722Z"/>
        </g>
        <g>
            <path d="M228.219,427.641L227.853,424.321C228.536,424.24 229.041,424.028 229.366,423.686C229.692,423.344 229.855,422.901 229.855,422.356C229.855,421.631 229.529,421.019 228.878,420.518C228.227,420.018 226.872,419.703 224.813,419.572C225.822,420.427 226.327,421.489 226.327,422.758C226.327,424.191 225.782,425.418 224.691,426.439C223.601,427.46 222.193,427.971 220.468,427.971C218.636,427.971 217.168,427.434 216.061,426.36C214.954,425.285 214.401,423.906 214.401,422.221C214.401,420.415 215.103,418.93 216.506,417.766C217.91,416.602 220.211,416.02 223.409,416.02C226.689,416.02 229.053,416.626 230.502,417.839C231.95,419.052 232.675,420.626 232.675,422.563C232.675,423.922 232.294,425.047 231.533,425.938C230.772,426.829 229.668,427.397 228.219,427.641ZM220.736,419.865C219.621,419.865 218.761,420.122 218.154,420.634C217.548,421.147 217.245,421.733 217.245,422.392C217.245,423.027 217.493,423.556 217.989,423.979C218.486,424.402 219.3,424.614 220.431,424.614C221.595,424.614 222.447,424.386 222.988,423.93C223.529,423.475 223.8,422.905 223.8,422.221C223.8,421.562 223.542,421.005 223.025,420.549C222.508,420.093 221.745,419.865 220.736,419.865Z"/>
            <path d="M232.675,435.722C232.675,437.456 232.056,438.811 230.819,439.787C229.354,440.951 226.925,441.533 223.531,441.533C220.146,441.533 217.713,440.947 216.232,439.775C215.011,438.807 214.401,437.456 214.401,435.722C214.401,433.981 215.07,432.577 216.409,431.511C217.747,430.445 220.134,429.912 223.568,429.912C226.937,429.912 229.362,430.498 230.843,431.67C232.064,432.638 232.675,433.989 232.675,435.722ZM229.83,435.722C229.83,435.307 229.698,434.937 229.434,434.611C229.169,434.286 228.695,434.034 228.011,433.855C227.124,433.619 225.631,433.501 223.531,433.501C221.432,433.501 219.989,433.606 219.204,433.818C218.419,434.03 217.896,434.296 217.635,434.618C217.375,434.939 217.245,435.307 217.245,435.722C217.245,436.137 217.377,436.508 217.642,436.833C217.906,437.159 218.38,437.411 219.064,437.59C219.943,437.826 221.432,437.944 223.531,437.944C225.631,437.944 227.074,437.838 227.859,437.627C228.644,437.415 229.169,437.149 229.434,436.827C229.698,436.506 229.83,436.137 229.83,435.722Z"/>
        </g>
        <g>
            <path d="M270.171,416.02L273.357,416.02L273.357,427.751L270.867,427.751C269.915,426.783 268.548,425.798 266.765,424.797C264.983,423.796 263.089,423.033 261.083,422.508C259.077,421.983 257.285,421.725 255.706,421.733L255.706,418.425C258.18,418.482 260.703,418.993 263.274,419.957C265.846,420.921 268.145,422.209 270.171,423.82L270.171,416.02Z"/>
            <path d="M273.675,435.722C273.675,437.456 273.056,438.811 271.819,439.787C270.354,440.951 267.925,441.533 264.531,441.533C261.146,441.533 258.713,440.947 257.232,439.775C256.011,438.807 255.401,437.456 255.401,435.722C255.401,433.981 256.07,432.577 257.409,431.511C258.747,430.445 261.134,429.912 264.568,429.912C267.937,429.912 270.362,430.498 271.843,431.67C273.064,432.638 273.675,433.989 273.675,435.722ZM270.83,435.722C270.83,435.307 270.698,434.937 270.434,434.611C270.169,434.286 269.695,434.034 269.011,433.855C268.124,433.619 266.631,433.501 264.531,433.501C262.432,433.501 260.989,433.606 260.204,433.818C259.419,434.03 258.896,434.296 258.635,434.618C258.375,434.939 258.245,435.307 258.245,435.722C258.245,436.137 258.377,436.508 258.642,436.833C258.906,437.159 259.38,437.411 260.064,437.59C260.943,437.826 262.432,437.944 264.531,437.944C266.631,437.944 268.074,437.838 268.859,437.627C269.644,437.415 270.169,437.149 270.434,436.827C270.698,436.506 270.83,436.137 270.83,435.722Z"/>
        </g>
        <g>
            <path d="M306.362,418.962C306.736,418.075 307.251,417.43 307.906,417.027C308.561,416.624 309.279,416.423 310.06,416.423C311.395,416.423 312.498,416.889 313.368,417.821C314.239,418.753 314.675,420.077 314.675,421.794C314.675,423.495 314.239,424.815 313.368,425.755C312.498,426.695 311.395,427.165 310.06,427.165C309.23,427.165 308.492,426.95 307.845,426.518C307.198,426.087 306.703,425.481 306.362,424.699C305.963,425.692 305.381,426.447 304.616,426.964C303.851,427.481 302.968,427.739 301.967,427.739C300.315,427.739 298.972,427.212 297.939,426.158C296.905,425.104 296.388,423.702 296.388,421.953C296.388,420.325 296.816,418.97 297.67,417.888C298.679,416.61 300.063,415.971 301.821,415.971C302.789,415.971 303.678,416.211 304.488,416.692C305.298,417.172 305.922,417.929 306.362,418.962ZM309.816,419.67C309.133,419.67 308.6,419.863 308.217,420.25C307.835,420.636 307.643,421.151 307.643,421.794C307.643,422.445 307.837,422.966 308.223,423.357C308.61,423.747 309.145,423.943 309.828,423.943C310.471,423.943 310.986,423.749 311.373,423.363C311.759,422.976 311.952,422.465 311.952,421.831C311.952,421.172 311.757,420.647 311.366,420.256C310.976,419.865 310.459,419.67 309.816,419.67ZM302.15,419.353C301.206,419.353 300.47,419.595 299.941,420.079C299.412,420.563 299.147,421.167 299.147,421.892C299.147,422.6 299.402,423.186 299.91,423.65C300.419,424.113 301.153,424.345 302.114,424.345C302.952,424.345 303.625,424.109 304.134,423.637C304.642,423.165 304.897,422.567 304.897,421.843C304.897,421.005 304.608,420.38 304.03,419.969C303.452,419.558 302.826,419.353 302.15,419.353Z"/>
            <path d="M314.675,435.722C314.675,437.456 314.056,438.811 312.819,439.787C311.354,440.951 308.925,441.533 305.531,441.533C302.146,441.533 299.713,440.947 298.232,439.775C297.011,438.807 296.401,437.456 296.401,435.722C296.401,433.981 297.07,432.577 298.409,431.511C299.747,430.445 302.134,429.912 305.568,429.912C308.937,429.912 311.362,430.498 312.843,431.67C314.064,432.638 314.675,433.989 314.675,435.722ZM311.83,435.722C311.83,435.307 311.698,434.937 311.434,434.611C311.169,434.286 310.695,434.034 310.011,433.855C309.124,433.619 307.631,433.501 305.531,433.501C303.432,433.501 301.989,433.606 301.204,433.818C300.419,434.03 299.896,434.296 299.635,434.618C299.375,434.939 299.245,435.307 299.245,435.722C299.245,436.137 299.377,436.508 299.642,436.833C299.906,437.159 300.38,437.411 301.064,437.59C301.943,437.826 303.432,437.944 305.531,437.944C307.631,437.944 309.074,437.838 309.859,437.627C310.644,437.415 311.169,437.149 311.434,436.827C311.698,436.506 311.83,436.137 311.83,435.722Z"/>
        </g>
        <g>
            <path d="M341.844,416.093L342.21,419.414C341.535,419.495 341.034,419.707 340.709,420.048C340.383,420.39 340.22,420.842 340.22,421.403C340.22,422.111 340.546,422.714 341.197,423.21C341.848,423.707 343.199,424.024 345.25,424.162C344.249,423.3 343.748,422.221 343.748,420.927C343.748,419.52 344.291,418.305 345.378,417.284C346.464,416.262 347.878,415.752 349.62,415.752C351.435,415.752 352.897,416.291 354.008,417.369C355.119,418.447 355.675,419.821 355.675,421.489C355.675,423.304 354.973,424.793 353.569,425.957C352.165,427.12 349.856,427.702 346.641,427.702C343.37,427.702 341.01,427.096 339.561,425.883C338.113,424.671 337.388,423.092 337.388,421.147C337.388,419.747 337.761,418.616 338.505,417.754C339.25,416.891 340.363,416.338 341.844,416.093ZM349.339,423.857C350.446,423.857 351.304,423.603 351.915,423.094C352.525,422.586 352.83,421.998 352.83,421.33C352.83,420.695 352.58,420.169 352.08,419.749C351.579,419.33 350.759,419.121 349.62,419.121C348.464,419.121 347.616,419.349 347.075,419.804C346.534,420.26 346.263,420.83 346.263,421.513C346.263,422.173 346.523,422.728 347.044,423.18C347.565,423.631 348.33,423.857 349.339,423.857Z"/>
            <path d="M355.675,435.722C355.675,437.456 355.056,438.811 353.819,439.787C352.354,440.951 349.925,441.533 346.531,441.533C343.146,441.533 340.713,440.947 339.232,439.775C338.011,438.807 337.401,437.456 337.401,435.722C337.401,433.981 338.07,432.577 339.409,431.511C340.747,430.445 343.134,429.912 346.568,429.912C349.937,429.912 352.362,430.498 353.843,431.67C355.064,432.638 355.675,433.989 355.675,435.722ZM352.83,435.722C352.83,435.307 352.698,434.937 352.434,434.611C352.169,434.286 351.695,434.034 351.011,433.855C350.124,433.619 348.631,433.501 346.531,433.501C344.432,433.501 342.989,433.606 342.204,433.818C341.419,434.03 340.896,434.296 340.635,434.618C340.375,434.939 340.245,435.307 340.245,435.722C340.245,436.137 340.377,436.508 340.642,436.833C340.906,437.159 341.38,437.411 342.064,437.59C342.943,437.826 344.432,437.944 346.531,437.944C348.631,437.944 350.074,437.838 350.859,437.627C351.644,437.415 352.169,437.149 352.434,436.827C352.698,436.506 352.83,436.137 352.83,435.722Z"/>
        </g>
        <g>
            <path d="M378.706,424.797L378.706,421.367L391.633,421.367C390.461,420.114 389.594,418.637 389.033,416.936L392.146,416.936C392.439,417.831 392.994,418.803 393.812,419.853C394.63,420.903 395.584,421.623 396.675,422.014L396.675,424.797L378.706,424.797Z"/>
            <path d="M396.675,435.722C396.675,437.456 396.056,438.811 394.819,439.787C393.354,440.951 390.925,441.533 387.531,441.533C384.146,441.533 381.713,440.947 380.232,439.775C379.011,438.807 378.401,437.456 378.401,435.722C378.401,433.981 379.07,432.577 380.409,431.511C381.747,430.445 384.134,429.912 387.568,429.912C390.937,429.912 393.362,430.498 394.843,431.67C396.064,432.638 396.675,433.989 396.675,435.722ZM393.83,435.722C393.83,435.307 393.698,434.937 393.434,434.611C393.169,434.286 392.695,434.034 392.011,433.855C391.124,433.619 389.631,433.501 387.531,433.501C385.432,433.501 383.989,433.606 383.204,433.818C382.419,434.03 381.896,434.296 381.635,434.618C381.375,434.939 381.245,435.307 381.245,435.722C381.245,436.137 381.377,436.508 381.642,436.833C381.906,437.159 382.38,437.411 383.064,437.59C383.943,437.826 385.432,437.944 387.531,437.944C389.631,437.944 391.074,437.838 391.859,437.627C392.644,437.415 393.169,437.149 393.434,436.827C393.698,436.506 393.83,436.137 393.83,435.722Z"/>
            <path d="M396.675,449.626C396.675,451.36 396.056,452.715 394.819,453.691C393.354,454.855 390.925,455.437 387.531,455.437C384.146,455.437 381.713,454.851 380.232,453.679C379.011,452.71 378.401,451.36 378.401,449.626C378.401,447.885 379.07,446.481 380.409,445.415C381.747,444.349 384.134,443.816 387.568,443.816C390.937,443.816 393.362,444.402 394.843,445.573C396.064,446.542 396.675,447.893 396.675,449.626ZM393.83,449.626C393.83,449.211 393.698,448.841 393.434,448.515C393.169,448.19 392.695,447.937 392.011,447.758C391.124,447.522 389.631,447.404 387.531,447.404C385.432,447.404 383.989,447.51 383.204,447.722C382.419,447.933 381.896,448.2 381.635,448.521C381.375,448.843 381.245,449.211 381.245,449.626C381.245,450.041 381.377,450.411 381.642,450.737C381.906,451.062 382.38,451.315 383.064,451.494C383.943,451.73 385.432,451.848 387.531,451.848C389.631,451.848 391.074,451.742 391.859,451.53C392.644,451.319 393.169,451.052 393.434,450.731C393.698,450.409 393.83,450.041 393.83,449.626Z"/>
        </g>
        <g>
            <path d="M425.272,396.189L421.842,396.189L421.842,383.262C420.589,384.434 419.111,385.301 417.411,385.862L417.411,382.749C418.306,382.456 419.278,381.901 420.328,381.083C421.378,380.265 422.098,379.311 422.489,378.221L425.272,378.221L425.272,396.189Z"/>
            <path d="M436.197,378.221C437.931,378.221 439.286,378.839 440.262,380.076C441.426,381.541 442.008,383.97 442.008,387.364C442.008,390.749 441.422,393.182 440.25,394.664C439.282,395.884 437.931,396.495 436.197,396.495C434.456,396.495 433.052,395.825 431.986,394.486C430.92,393.148 430.387,390.761 430.387,387.327C430.387,383.958 430.973,381.533 432.144,380.052C433.113,378.831 434.464,378.221 436.197,378.221ZM436.197,381.065C435.782,381.065 435.412,381.197 435.086,381.462C434.761,381.726 434.509,382.2 434.33,382.884C434.094,383.771 433.976,385.264 433.976,387.364C433.976,389.463 434.081,390.906 434.293,391.691C434.505,392.476 434.771,392.999 435.092,393.26C435.414,393.52 435.782,393.65 436.197,393.65C436.612,393.65 436.983,393.518 437.308,393.254C437.634,392.989 437.886,392.515 438.065,391.831C438.301,390.953 438.419,389.463 438.419,387.364C438.419,385.264 438.313,383.822 438.102,383.036C437.89,382.251 437.623,381.726 437.302,381.462C436.981,381.197 436.612,381.065 436.197,381.065Z"/>
        </g>
        <g>
            <path d="M121.454,465.8L124.969,465.458C125.181,466.638 125.61,467.505 126.257,468.058C126.904,468.611 127.777,468.888 128.876,468.888C130.039,468.888 130.916,468.642 131.506,468.15C132.096,467.657 132.391,467.081 132.391,466.422C132.391,465.999 132.267,465.639 132.019,465.342C131.771,465.045 131.337,464.787 130.719,464.567C130.296,464.42 129.331,464.16 127.826,463.786C125.889,463.305 124.53,462.715 123.749,462.016C122.65,461.031 122.101,459.83 122.101,458.414C122.101,457.503 122.359,456.651 122.876,455.857C123.393,455.064 124.137,454.459 125.11,454.044C126.082,453.629 127.256,453.422 128.632,453.422C130.878,453.422 132.568,453.914 133.704,454.899C134.839,455.884 135.435,457.198 135.492,458.842L131.879,459C131.724,458.081 131.392,457.42 130.884,457.017C130.375,456.614 129.612,456.412 128.595,456.412C127.545,456.412 126.723,456.628 126.129,457.059C125.747,457.336 125.555,457.706 125.555,458.17C125.555,458.593 125.734,458.956 126.093,459.257C126.548,459.639 127.655,460.038 129.413,460.453C131.171,460.868 132.471,461.297 133.313,461.741C134.155,462.184 134.814,462.791 135.291,463.56C135.767,464.329 136.005,465.279 136.005,466.41C136.005,467.435 135.72,468.396 135.15,469.291C134.58,470.186 133.775,470.851 132.733,471.287C131.691,471.722 130.393,471.94 128.839,471.94C126.577,471.94 124.839,471.417 123.627,470.371C122.414,469.325 121.69,467.802 121.454,465.8Z"/>
            <path d="M139.044,471.622L139.044,453.727L144.843,453.727C147.04,453.727 148.472,453.816 149.139,453.995C150.165,454.264 151.023,454.848 151.715,455.747C152.407,456.646 152.753,457.808 152.753,459.232C152.753,460.331 152.553,461.255 152.155,462.003C151.756,462.752 151.249,463.34 150.635,463.767C150.02,464.194 149.396,464.477 148.761,464.616C147.898,464.787 146.649,464.872 145.013,464.872L142.657,464.872L142.657,471.622L139.044,471.622ZM142.657,456.754L142.657,461.832L144.635,461.832C146.059,461.832 147.011,461.739 147.491,461.552C147.972,461.364 148.348,461.072 148.621,460.673C148.893,460.274 149.03,459.81 149.03,459.281C149.03,458.63 148.838,458.093 148.456,457.67C148.073,457.247 147.589,456.982 147.003,456.876C146.572,456.795 145.705,456.754 144.403,456.754L142.657,456.754Z"/>
            <path d="M155.719,471.622L155.719,453.727L168.988,453.727L168.988,456.754L159.332,456.754L159.332,460.722L168.317,460.722L168.317,463.737L159.332,463.737L159.332,468.607L169.33,468.607L169.33,471.622L155.719,471.622Z"/>
            <path d="M172.394,471.622L172.394,453.727L185.663,453.727L185.663,456.754L176.007,456.754L176.007,460.722L184.991,460.722L184.991,463.737L176.007,463.737L176.007,468.607L186.005,468.607L186.005,471.622L172.394,471.622Z"/>
            <path d="M189.056,453.727L195.66,453.727C197.15,453.727 198.285,453.841 199.066,454.069C200.116,454.378 201.015,454.927 201.764,455.717C202.513,456.506 203.082,457.472 203.473,458.616C203.864,459.759 204.059,461.169 204.059,462.846C204.059,464.319 203.876,465.588 203.51,466.654C203.062,467.956 202.423,469.01 201.593,469.816C200.966,470.426 200.12,470.902 199.054,471.244C198.256,471.496 197.19,471.622 195.856,471.622L189.056,471.622L189.056,453.727ZM192.67,456.754L192.67,468.607L195.367,468.607C196.377,468.607 197.105,468.55 197.552,468.436C198.138,468.29 198.625,468.042 199.011,467.692C199.398,467.342 199.713,466.766 199.957,465.964C200.201,465.163 200.323,464.07 200.323,462.687C200.323,461.303 200.201,460.241 199.957,459.501C199.713,458.76 199.371,458.183 198.932,457.767C198.492,457.352 197.935,457.072 197.26,456.925C196.755,456.811 195.766,456.754 194.293,456.754L192.67,456.754Z"/>
            <path d="M219.733,476.884L217.377,476.884C216.132,475.004 215.183,473.051 214.532,471.024C213.881,468.998 213.556,467.037 213.556,465.141C213.556,462.789 213.959,460.563 214.764,458.463C215.464,456.64 216.351,454.96 217.426,453.422L219.769,453.422C218.654,455.888 217.887,457.985 217.468,459.714C217.049,461.444 216.84,463.277 216.84,465.214C216.84,466.548 216.964,467.916 217.212,469.315C217.46,470.715 217.8,472.046 218.231,473.307C218.516,474.137 219.017,475.329 219.733,476.884Z"/>
            <path d="M233.673,462.492L230.292,463.102C230.178,462.426 229.919,461.918 229.517,461.576C229.114,461.234 228.591,461.063 227.948,461.063C227.093,461.063 226.412,461.358 225.903,461.948C225.395,462.538 225.14,463.525 225.14,464.909C225.14,466.447 225.399,467.533 225.916,468.168C226.432,468.803 227.126,469.12 227.997,469.12C228.648,469.12 229.181,468.935 229.596,468.565C230.011,468.194 230.304,467.558 230.475,466.654L233.844,467.228C233.494,468.774 232.823,469.942 231.83,470.731C230.837,471.521 229.506,471.915 227.838,471.915C225.942,471.915 224.43,471.317 223.303,470.121C222.176,468.925 221.613,467.269 221.613,465.153C221.613,463.012 222.178,461.346 223.309,460.154C224.44,458.962 225.97,458.366 227.899,458.366C229.478,458.366 230.733,458.705 231.665,459.385C232.597,460.064 233.266,461.1 233.673,462.492Z"/>
            <path d="M236.017,458.659L239.178,458.659L239.178,460.429C240.31,459.053 241.656,458.366 243.219,458.366C244.049,458.366 244.769,458.537 245.38,458.878C245.99,459.22 246.49,459.737 246.881,460.429C247.451,459.737 248.065,459.22 248.724,458.878C249.384,458.537 250.087,458.366 250.836,458.366C251.788,458.366 252.594,458.559 253.253,458.945C253.912,459.332 254.405,459.9 254.73,460.648C254.966,461.202 255.084,462.097 255.084,463.334L255.084,471.622L251.654,471.622L251.654,464.213C251.654,462.927 251.536,462.097 251.3,461.723C250.983,461.234 250.494,460.99 249.835,460.99C249.355,460.99 248.903,461.137 248.48,461.43C248.057,461.723 247.752,462.152 247.565,462.717C247.378,463.283 247.284,464.176 247.284,465.397L247.284,471.622L243.854,471.622L243.854,464.518C243.854,463.257 243.793,462.443 243.671,462.077C243.549,461.71 243.359,461.438 243.103,461.259C242.847,461.08 242.499,460.99 242.059,460.99C241.53,460.99 241.054,461.133 240.631,461.417C240.208,461.702 239.905,462.113 239.722,462.65C239.539,463.187 239.447,464.079 239.447,465.324L239.447,471.622L236.017,471.622L236.017,458.659Z"/>
            <path d="M256.671,471.928L261.102,453.422L263.678,453.422L259.198,471.928L256.671,471.928Z"/>
            <path d="M264.239,467.924L267.682,467.399C267.828,468.066 268.125,468.573 268.573,468.919C269.021,469.264 269.647,469.437 270.453,469.437C271.34,469.437 272.007,469.275 272.455,468.949C272.756,468.721 272.906,468.416 272.906,468.034C272.906,467.773 272.825,467.558 272.662,467.387C272.491,467.224 272.109,467.073 271.515,466.935C268.748,466.325 266.994,465.767 266.254,465.263C265.228,464.563 264.716,463.59 264.716,462.345C264.716,461.222 265.159,460.278 266.046,459.513C266.933,458.748 268.308,458.366 270.172,458.366C271.946,458.366 273.265,458.655 274.127,459.232C274.99,459.81 275.584,460.665 275.909,461.796L272.675,462.394C272.536,461.889 272.274,461.503 271.887,461.234C271.501,460.966 270.949,460.831 270.233,460.831C269.33,460.831 268.683,460.958 268.292,461.21C268.032,461.389 267.902,461.621 267.902,461.906C267.902,462.15 268.016,462.357 268.243,462.528C268.553,462.756 269.621,463.078 271.448,463.493C273.275,463.908 274.55,464.416 275.275,465.018C275.991,465.629 276.349,466.479 276.349,467.57C276.349,468.758 275.852,469.779 274.86,470.634C273.867,471.488 272.398,471.915 270.453,471.915C268.687,471.915 267.289,471.557 266.26,470.841C265.23,470.125 264.557,469.153 264.239,467.924Z"/>
            <path d="M278.4,476.884C279.075,475.435 279.551,474.324 279.828,473.551C280.105,472.778 280.361,471.887 280.597,470.878C280.833,469.869 281.008,468.91 281.122,468.003C281.236,467.096 281.293,466.166 281.293,465.214C281.293,463.277 281.085,461.444 280.67,459.714C280.255,457.985 279.49,455.888 278.375,453.422L280.707,453.422C281.936,455.171 282.89,457.027 283.569,458.988C284.249,460.949 284.589,462.939 284.589,464.957C284.589,466.658 284.32,468.481 283.783,470.426C283.173,472.607 282.168,474.76 280.768,476.884L278.4,476.884Z"/>
        </g>
        <g>
            <path d="M472.097,255.621L454.202,255.621L454.202,249.823C454.202,247.626 454.291,246.193 454.47,245.526C454.739,244.501 455.323,243.642 456.222,242.95C457.121,242.259 458.283,241.913 459.707,241.913C460.806,241.913 461.73,242.112 462.478,242.511C463.227,242.91 463.815,243.416 464.242,244.031C464.669,244.645 464.952,245.27 465.091,245.904C465.261,246.767 465.347,248.016 465.347,249.652L465.347,252.008L472.097,252.008L472.097,255.621ZM457.229,252.008L462.307,252.008L462.307,250.03C462.307,248.606 462.214,247.654 462.027,247.174C461.839,246.694 461.546,246.317 461.148,246.045C460.749,245.772 460.285,245.636 459.756,245.636C459.105,245.636 458.568,245.827 458.145,246.21C457.722,246.592 457.457,247.076 457.351,247.662C457.27,248.094 457.229,248.96 457.229,250.262L457.229,252.008Z"/>
            <path d="M463.259,239.679C461.437,239.679 459.907,239.406 458.67,238.861C457.758,238.454 456.94,237.899 456.216,237.195C455.492,236.491 454.955,235.72 454.605,234.882C454.133,233.767 453.897,232.481 453.897,231.024C453.897,228.387 454.715,226.278 456.35,224.695C457.986,223.112 460.261,222.32 463.174,222.32C466.063,222.32 468.323,223.106 469.955,224.676C471.587,226.247 472.403,228.347 472.403,230.975C472.403,233.636 471.591,235.752 469.967,237.323C468.344,238.894 466.108,239.679 463.259,239.679ZM463.137,235.956C465.164,235.956 466.7,235.488 467.746,234.552C468.791,233.616 469.314,232.428 469.314,230.987C469.314,229.547 468.795,228.365 467.758,227.441C466.72,226.518 465.164,226.056 463.089,226.056C461.038,226.056 459.508,226.505 458.499,227.405C457.49,228.304 456.985,229.498 456.985,230.987C456.985,232.477 457.496,233.677 458.517,234.589C459.538,235.5 461.078,235.956 463.137,235.956Z"/>
            <path d="M472.097,216.962L454.202,221.234L454.202,217.535L466.494,214.838L454.202,211.566L454.202,207.269L466.702,204.132L454.202,201.385L454.202,197.748L472.097,202.093L472.097,205.926L458.718,209.491L472.097,213.043L472.097,216.962Z"/>
            <path d="M472.097,195.904L454.202,195.904L454.202,182.635L457.229,182.635L457.229,192.291L461.196,192.291L461.196,183.307L464.212,183.307L464.212,192.291L469.082,192.291L469.082,182.294L472.097,182.294L472.097,195.904Z"/>
            <path d="M472.097,179.217L454.202,179.217L454.202,171.612C454.202,169.7 454.363,168.31 454.684,167.444C455.005,166.577 455.577,165.883 456.399,165.362C457.221,164.842 458.161,164.581 459.219,164.581C460.562,164.581 461.671,164.976 462.545,165.765C463.42,166.555 463.972,167.735 464.199,169.305C464.655,168.524 465.156,167.879 465.701,167.371C466.246,166.862 467.215,166.176 468.606,165.314L472.097,163.129L472.097,167.45L468.203,170.062C466.812,170.99 465.935,171.625 465.573,171.966C465.211,172.308 464.962,172.67 464.828,173.053C464.694,173.435 464.627,174.042 464.627,174.872L464.627,175.604L472.097,175.604L472.097,179.217ZM461.77,175.604L461.77,172.931C461.77,171.197 461.697,170.115 461.55,169.684C461.404,169.252 461.152,168.915 460.794,168.671C460.436,168.426 459.988,168.304 459.451,168.304C458.849,168.304 458.362,168.465 457.992,168.787C457.622,169.108 457.388,169.562 457.29,170.148C457.25,170.441 457.229,171.32 457.229,172.784L457.229,175.604L461.77,175.604Z"/>
            <path d="M477.359,148.566L477.359,150.922C475.479,152.167 473.526,153.115 471.499,153.766C469.473,154.417 467.512,154.742 465.615,154.742C463.264,154.742 461.038,154.34 458.938,153.534C457.115,152.834 455.435,151.947 453.897,150.873L453.897,148.529C456.362,149.644 458.46,150.411 460.189,150.83C461.919,151.249 463.752,151.459 465.689,151.459C467.023,151.459 468.39,151.335 469.79,151.086C471.19,150.838 472.521,150.498 473.782,150.067C474.612,149.782 475.804,149.282 477.359,148.566Z"/>
            <path d="M458.621,146.637C457.018,146.637 455.829,146.285 455.056,145.581C454.283,144.877 453.897,143.923 453.897,142.718C453.897,141.473 454.281,140.499 455.05,139.795C455.819,139.091 457.009,138.739 458.621,138.739C460.224,138.739 461.412,139.091 462.185,139.795C462.958,140.499 463.345,141.453 463.345,142.657C463.345,143.903 462.96,144.877 462.191,145.581C461.422,146.285 460.232,146.637 458.621,146.637ZM458.596,143.964C459.76,143.964 460.541,143.829 460.94,143.561C461.233,143.357 461.38,143.077 461.38,142.718C461.38,142.352 461.233,142.067 460.94,141.864C460.541,141.604 459.76,141.473 458.596,141.473C457.433,141.473 456.655,141.604 456.265,141.864C455.964,142.067 455.813,142.352 455.813,142.718C455.813,143.077 455.96,143.357 456.253,143.561C456.651,143.829 457.433,143.964 458.596,143.964ZM472.781,140.106L472.781,142.645L453.897,133.112L453.897,130.646L472.781,140.106ZM468.081,134.564C466.478,134.564 465.29,134.212 464.517,133.508C463.744,132.804 463.357,131.842 463.357,130.621C463.357,129.392 463.744,128.426 464.517,127.722C465.29,127.018 466.478,126.666 468.081,126.666C469.693,126.666 470.885,127.018 471.658,127.722C472.431,128.426 472.818,129.38 472.818,130.585C472.818,131.83 472.431,132.804 471.658,133.508C470.885,134.212 469.693,134.564 468.081,134.564ZM468.069,131.891C469.233,131.891 470.01,131.757 470.401,131.488C470.702,131.285 470.852,131.004 470.852,130.646C470.852,130.279 470.706,129.999 470.413,129.803C470.014,129.535 469.233,129.401 468.069,129.401C466.905,129.401 466.124,129.531 465.725,129.791C465.432,129.995 465.286,130.279 465.286,130.646C465.286,131.012 465.432,131.293 465.725,131.488C466.124,131.757 466.905,131.891 468.069,131.891Z"/>
            <path d="M477.359,124.652C475.91,123.977 474.799,123.501 474.026,123.224C473.253,122.947 472.362,122.691 471.353,122.455C470.344,122.219 469.385,122.044 468.478,121.93C467.571,121.816 466.641,121.759 465.689,121.759C463.752,121.759 461.919,121.966 460.189,122.382C458.46,122.797 456.362,123.562 453.897,124.676L453.897,122.345C455.646,121.116 457.502,120.162 459.463,119.482C461.424,118.803 463.414,118.463 465.432,118.463C467.133,118.463 468.956,118.732 470.901,119.269C473.082,119.879 475.235,120.884 477.359,122.284L477.359,124.652Z"/>
        </g>
        <g>
            <path d="M428.08,352.066L428.08,355.252L416.056,355.252C416.186,354.048 416.576,352.907 417.228,351.828C417.879,350.75 419.164,349.32 421.085,347.538C422.631,346.097 423.579,345.121 423.929,344.608C424.401,343.9 424.637,343.2 424.637,342.508C424.637,341.743 424.432,341.155 424.021,340.744C423.61,340.333 423.042,340.128 422.318,340.128C421.602,340.128 421.032,340.344 420.609,340.775C420.186,341.206 419.942,341.922 419.876,342.923L416.458,342.581C416.662,340.693 417.301,339.338 418.375,338.517C419.449,337.695 420.792,337.284 422.403,337.284C424.169,337.284 425.557,337.76 426.566,338.712C427.575,339.664 428.08,340.848 428.08,342.264C428.08,343.07 427.935,343.837 427.646,344.565C427.357,345.293 426.9,346.056 426.273,346.854C425.858,347.383 425.109,348.144 424.027,349.137C422.944,350.129 422.259,350.789 421.97,351.114C421.681,351.44 421.447,351.757 421.268,352.066L428.08,352.066Z"/>
            <path d="M436.197,337.284C437.931,337.284 439.286,337.902 440.262,339.139C441.426,340.604 442.008,343.033 442.008,346.427C442.008,349.812 441.422,352.245 440.25,353.726C439.282,354.947 437.931,355.558 436.197,355.558C434.456,355.558 433.052,354.888 431.986,353.549C430.92,352.211 430.387,349.824 430.387,346.39C430.387,343.021 430.973,340.596 432.144,339.115C433.113,337.894 434.464,337.284 436.197,337.284ZM436.197,340.128C435.782,340.128 435.412,340.26 435.086,340.525C434.761,340.789 434.509,341.263 434.33,341.947C434.094,342.834 433.976,344.327 433.976,346.427C433.976,348.526 434.081,349.969 434.293,350.754C434.505,351.539 434.771,352.062 435.092,352.323C435.414,352.583 435.782,352.713 436.197,352.713C436.612,352.713 436.983,352.581 437.308,352.317C437.634,352.052 437.886,351.578 438.065,350.894C438.301,350.016 438.419,348.526 438.419,346.427C438.419,344.327 438.313,342.885 438.102,342.099C437.89,341.314 437.623,340.789 437.302,340.525C436.981,340.26 436.612,340.128 436.197,340.128Z"/>
        </g>
        <g>
            <path d="M416.373,309.504L419.693,309.101C419.799,309.947 420.084,310.594 420.548,311.042C421.012,311.49 421.573,311.713 422.232,311.713C422.94,311.713 423.537,311.445 424.021,310.908C424.505,310.371 424.747,309.646 424.747,308.735C424.747,307.872 424.515,307.189 424.051,306.684C423.587,306.179 423.022,305.927 422.354,305.927C421.915,305.927 421.39,306.013 420.78,306.184L421.158,303.388C422.086,303.413 422.794,303.211 423.282,302.784C423.77,302.357 424.015,301.789 424.015,301.081C424.015,300.479 423.836,299.999 423.478,299.641C423.119,299.282 422.643,299.103 422.049,299.103C421.463,299.103 420.963,299.307 420.548,299.714C420.133,300.121 419.88,300.715 419.791,301.496L416.629,300.959C416.849,299.877 417.181,299.012 417.624,298.365C418.068,297.718 418.686,297.209 419.48,296.839C420.273,296.469 421.162,296.284 422.147,296.284C423.832,296.284 425.182,296.821 426.2,297.895C427.038,298.774 427.457,299.767 427.457,300.873C427.457,302.444 426.598,303.697 424.881,304.633C425.907,304.853 426.727,305.345 427.341,306.11C427.955,306.875 428.263,307.799 428.263,308.881C428.263,310.452 427.689,311.791 426.541,312.897C425.394,314.004 423.966,314.558 422.257,314.558C420.637,314.558 419.295,314.092 418.228,313.16C417.162,312.228 416.544,311.009 416.373,309.504Z"/>
            <path d="M436.197,296.284C437.931,296.284 439.286,296.902 440.262,298.139C441.426,299.604 442.008,302.033 442.008,305.427C442.008,308.812 441.422,311.245 440.25,312.726C439.282,313.947 437.931,314.558 436.197,314.558C434.456,314.558 433.052,313.888 431.986,312.549C430.92,311.211 430.387,308.824 430.387,305.39C430.387,302.021 430.973,299.596 432.144,298.115C433.113,296.894 434.464,296.284 436.197,296.284ZM436.197,299.128C435.782,299.128 435.412,299.26 435.086,299.525C434.761,299.789 434.509,300.263 434.33,300.947C434.094,301.834 433.976,303.327 433.976,305.427C433.976,307.526 434.081,308.969 434.293,309.754C434.505,310.539 434.771,311.062 435.092,311.323C435.414,311.583 435.782,311.713 436.197,311.713C436.612,311.713 436.983,311.581 437.308,311.317C437.634,311.052 437.886,310.578 438.065,309.894C438.301,309.016 438.419,307.526 438.419,305.427C438.419,303.327 438.313,301.885 438.102,301.099C437.89,300.314 437.623,299.789 437.302,299.525C436.981,299.26 436.612,299.128 436.197,299.128Z"/>
        </g>
        <g>
            <path d="M423.221,273.252L423.221,269.651L415.897,269.651L415.897,266.648L423.661,255.284L426.541,255.284L426.541,266.636L428.763,266.636L428.763,269.651L426.541,269.651L426.541,273.252L423.221,273.252ZM423.221,266.636L423.221,260.52L419.107,266.636L423.221,266.636Z"/>
            <path d="M436.197,255.284C437.931,255.284 439.286,255.902 440.262,257.139C441.426,258.604 442.008,261.033 442.008,264.427C442.008,267.812 441.422,270.245 440.25,271.726C439.282,272.947 437.931,273.558 436.197,273.558C434.456,273.558 433.052,272.888 431.986,271.549C430.92,270.211 430.387,267.824 430.387,264.39C430.387,261.021 430.973,258.596 432.144,257.115C433.113,255.894 434.464,255.284 436.197,255.284ZM436.197,258.128C435.782,258.128 435.412,258.26 435.086,258.525C434.761,258.789 434.509,259.263 434.33,259.947C434.094,260.834 433.976,262.327 433.976,264.427C433.976,266.526 434.081,267.969 434.293,268.754C434.505,269.539 434.771,270.062 435.092,270.323C435.414,270.583 435.782,270.713 436.197,270.713C436.612,270.713 436.983,270.581 437.308,270.317C437.634,270.052 437.886,269.578 438.065,268.894C438.301,268.016 438.419,266.526 438.419,264.427C438.419,262.327 438.313,260.885 438.102,260.099C437.89,259.314 437.623,258.789 437.302,258.525C436.981,258.26 436.612,258.128 436.197,258.128Z"/>
        </g>
        <g>
            <path d="M416.544,227.65L419.962,227.296C420.06,228.069 420.348,228.682 420.829,229.133C421.309,229.585 421.862,229.811 422.489,229.811C423.205,229.811 423.811,229.52 424.308,228.938C424.804,228.356 425.052,227.479 425.052,226.308C425.052,225.209 424.806,224.385 424.314,223.836C423.821,223.286 423.18,223.012 422.391,223.012C421.406,223.012 420.523,223.447 419.742,224.318L416.959,223.915L418.717,214.601L427.787,214.601L427.787,217.811L421.317,217.811L420.78,220.851C421.545,220.469 422.326,220.277 423.124,220.277C424.645,220.277 425.935,220.831 426.993,221.937C428.051,223.044 428.58,224.481 428.58,226.247C428.58,227.719 428.153,229.034 427.298,230.189C426.135,231.768 424.519,232.558 422.452,232.558C420.8,232.558 419.453,232.114 418.412,231.227C417.37,230.34 416.747,229.148 416.544,227.65Z"/>
            <path d="M436.197,214.284C437.931,214.284 439.286,214.902 440.262,216.139C441.426,217.604 442.008,220.033 442.008,223.427C442.008,226.812 441.422,229.245 440.25,230.726C439.282,231.947 437.931,232.558 436.197,232.558C434.456,232.558 433.052,231.888 431.986,230.549C430.92,229.211 430.387,226.824 430.387,223.39C430.387,220.021 430.973,217.596 432.144,216.115C433.113,214.894 434.464,214.284 436.197,214.284ZM436.197,217.128C435.782,217.128 435.412,217.26 435.086,217.525C434.761,217.789 434.509,218.263 434.33,218.947C434.094,219.834 433.976,221.327 433.976,223.427C433.976,225.526 434.081,226.969 434.293,227.754C434.505,228.539 434.771,229.062 435.092,229.323C435.414,229.583 435.782,229.713 436.197,229.713C436.612,229.713 436.983,229.581 437.308,229.317C437.634,229.052 437.886,228.578 438.065,227.894C438.301,227.016 438.419,225.526 438.419,223.427C438.419,221.327 438.313,219.885 438.102,219.099C437.89,218.314 437.623,217.789 437.302,217.525C436.981,217.26 436.612,217.128 436.197,217.128Z"/>
        </g>
        <g>
            <path d="M428.116,177.739L424.796,178.105C424.714,177.422 424.503,176.917 424.161,176.592C423.819,176.266 423.376,176.103 422.831,176.103C422.106,176.103 421.494,176.429 420.993,177.08C420.493,177.731 420.178,179.086 420.047,181.145C420.902,180.136 421.964,179.631 423.233,179.631C424.666,179.631 425.892,180.177 426.914,181.267C427.935,182.358 428.446,183.765 428.446,185.491C428.446,187.322 427.909,188.791 426.834,189.897C425.76,191.004 424.381,191.558 422.696,191.558C420.89,191.558 419.404,190.856 418.241,189.452C417.077,188.048 416.495,185.747 416.495,182.549C416.495,179.269 417.101,176.905 418.314,175.456C419.526,174.008 421.101,173.284 423.038,173.284C424.397,173.284 425.522,173.664 426.413,174.425C427.304,175.186 427.872,176.291 428.116,177.739ZM420.34,185.222C420.34,186.337 420.597,187.198 421.109,187.804C421.622,188.41 422.208,188.713 422.867,188.713C423.502,188.713 424.031,188.465 424.454,187.969C424.877,187.472 425.089,186.658 425.089,185.527C425.089,184.364 424.861,183.511 424.405,182.97C423.95,182.429 423.38,182.158 422.696,182.158C422.037,182.158 421.48,182.417 421.024,182.933C420.568,183.45 420.34,184.213 420.34,185.222Z"/>
            <path d="M436.197,173.284C437.931,173.284 439.286,173.902 440.262,175.139C441.426,176.604 442.008,179.033 442.008,182.427C442.008,185.812 441.422,188.245 440.25,189.726C439.282,190.947 437.931,191.558 436.197,191.558C434.456,191.558 433.052,190.888 431.986,189.549C430.92,188.211 430.387,185.824 430.387,182.39C430.387,179.021 430.973,176.596 432.144,175.115C433.113,173.894 434.464,173.284 436.197,173.284ZM436.197,176.128C435.782,176.128 435.412,176.26 435.086,176.525C434.761,176.789 434.509,177.263 434.33,177.947C434.094,178.834 433.976,180.327 433.976,182.427C433.976,184.526 434.081,185.969 434.293,186.754C434.505,187.539 434.771,188.062 435.092,188.323C435.414,188.583 435.782,188.713 436.197,188.713C436.612,188.713 436.983,188.581 437.308,188.317C437.634,188.052 437.886,187.578 438.065,186.894C438.301,186.016 438.419,184.526 438.419,182.427C438.419,180.327 438.313,178.885 438.102,178.099C437.89,177.314 437.623,176.789 437.302,176.525C436.981,176.26 436.612,176.128 436.197,176.128Z"/>
        </g>
        <g>
            <path d="M416.495,135.787L416.495,132.601L428.226,132.601L428.226,135.091C427.258,136.043 426.273,137.411 425.272,139.193C424.271,140.975 423.508,142.869 422.983,144.875C422.458,146.881 422.2,148.674 422.208,150.252L418.9,150.252C418.957,147.778 419.467,145.256 420.432,142.684C421.396,140.112 422.684,137.813 424.295,135.787L416.495,135.787Z"/>
            <path d="M436.197,132.284C437.931,132.284 439.286,132.902 440.262,134.139C441.426,135.604 442.008,138.033 442.008,141.427C442.008,144.812 441.422,147.245 440.25,148.726C439.282,149.947 437.931,150.558 436.197,150.558C434.456,150.558 433.052,149.888 431.986,148.549C430.92,147.211 430.387,144.824 430.387,141.39C430.387,138.021 430.973,135.596 432.144,134.115C433.113,132.894 434.464,132.284 436.197,132.284ZM436.197,135.128C435.782,135.128 435.412,135.26 435.086,135.525C434.761,135.789 434.509,136.263 434.33,136.947C434.094,137.834 433.976,139.327 433.976,141.427C433.976,143.526 434.081,144.969 434.293,145.754C434.505,146.539 434.771,147.062 435.092,147.323C435.414,147.583 435.782,147.713 436.197,147.713C436.612,147.713 436.983,147.581 437.308,147.317C437.634,147.052 437.886,146.578 438.065,145.894C438.301,145.016 438.419,143.526 438.419,141.427C438.419,139.327 438.313,137.885 438.102,137.099C437.89,136.314 437.623,135.789 437.302,135.525C436.981,135.26 436.612,135.128 436.197,135.128Z"/>
        </g>
        <g>
            <path d="M419.437,99.597C418.55,99.222 417.905,98.708 417.502,98.052C417.099,97.397 416.898,96.679 416.898,95.898C416.898,94.563 417.364,93.461 418.296,92.59C419.227,91.719 420.552,91.284 422.269,91.284C423.97,91.284 425.29,91.719 426.23,92.59C427.17,93.461 427.64,94.563 427.64,95.898C427.64,96.728 427.424,97.466 426.993,98.113C426.562,98.76 425.956,99.255 425.174,99.597C426.167,99.995 426.922,100.577 427.439,101.342C427.955,102.107 428.214,102.99 428.214,103.991C428.214,105.643 427.687,106.986 426.633,108.019C425.579,109.053 424.177,109.57 422.428,109.57C420.8,109.57 419.445,109.143 418.363,108.288C417.085,107.279 416.446,105.895 416.446,104.138C416.446,103.169 416.686,102.28 417.166,101.47C417.647,100.661 418.403,100.036 419.437,99.597ZM420.145,96.142C420.145,96.826 420.338,97.359 420.725,97.741C421.111,98.124 421.626,98.315 422.269,98.315C422.92,98.315 423.441,98.122 423.832,97.735C424.222,97.348 424.417,96.813 424.417,96.13C424.417,95.487 424.224,94.972 423.838,94.586C423.451,94.199 422.94,94.006 422.306,94.006C421.646,94.006 421.122,94.201 420.731,94.592C420.34,94.982 420.145,95.499 420.145,96.142ZM419.828,103.808C419.828,104.752 420.07,105.489 420.554,106.018C421.038,106.546 421.642,106.811 422.367,106.811C423.075,106.811 423.661,106.557 424.124,106.048C424.588,105.539 424.82,104.805 424.82,103.845C424.82,103.006 424.584,102.333 424.112,101.824C423.64,101.316 423.042,101.061 422.318,101.061C421.48,101.061 420.855,101.35 420.444,101.928C420.033,102.506 419.828,103.133 419.828,103.808Z"/>
            <path d="M436.197,91.284C437.931,91.284 439.286,91.902 440.262,93.139C441.426,94.604 442.008,97.033 442.008,100.427C442.008,103.812 441.422,106.245 440.25,107.726C439.282,108.947 437.931,109.558 436.197,109.558C434.456,109.558 433.052,108.888 431.986,107.549C430.92,106.211 430.387,103.824 430.387,100.39C430.387,97.021 430.973,94.596 432.144,93.115C433.113,91.894 434.464,91.284 436.197,91.284ZM436.197,94.128C435.782,94.128 435.412,94.26 435.086,94.525C434.761,94.789 434.509,95.263 434.33,95.947C434.094,96.834 433.976,98.327 433.976,100.427C433.976,102.526 434.081,103.969 434.293,104.754C434.505,105.539 434.771,106.062 435.092,106.323C435.414,106.583 435.782,106.713 436.197,106.713C436.612,106.713 436.983,106.581 437.308,106.317C437.634,106.052 437.886,105.578 438.065,104.894C438.301,104.016 438.419,102.526 438.419,100.427C438.419,98.327 438.313,96.885 438.102,96.099C437.89,95.314 437.623,94.789 437.302,94.525C436.981,94.26 436.612,94.128 436.197,94.128Z"/>
        </g>
        <g>
            <path d="M416.568,64.114L419.889,63.748C419.97,64.423 420.182,64.924 420.523,65.249C420.865,65.575 421.317,65.738 421.878,65.738C422.586,65.738 423.189,65.412 423.685,64.761C424.181,64.11 424.499,62.759 424.637,60.708C423.775,61.709 422.696,62.21 421.402,62.21C419.994,62.21 418.78,61.667 417.759,60.58C416.737,59.494 416.227,58.08 416.227,56.338C416.227,54.524 416.766,53.061 417.844,51.95C418.922,50.839 420.296,50.284 421.964,50.284C423.779,50.284 425.268,50.986 426.432,52.389C427.595,53.793 428.177,56.102 428.177,59.317C428.177,62.588 427.571,64.948 426.358,66.397C425.146,67.845 423.567,68.57 421.622,68.57C420.222,68.57 419.091,68.197 418.228,67.453C417.366,66.708 416.812,65.595 416.568,64.114ZM424.332,56.619C424.332,55.512 424.078,54.654 423.569,54.043C423.06,53.433 422.472,53.128 421.805,53.128C421.17,53.128 420.643,53.378 420.224,53.879C419.805,54.379 419.596,55.199 419.596,56.338C419.596,57.494 419.824,58.342 420.279,58.883C420.735,59.425 421.305,59.695 421.988,59.695C422.647,59.695 423.203,59.435 423.655,58.914C424.106,58.393 424.332,57.628 424.332,56.619Z"/>
            <path d="M436.197,50.284C437.931,50.284 439.286,50.902 440.262,52.139C441.426,53.604 442.008,56.033 442.008,59.427C442.008,62.812 441.422,65.245 440.25,66.726C439.282,67.947 437.931,68.558 436.197,68.558C434.456,68.558 433.052,67.888 431.986,66.549C430.92,65.211 430.387,62.824 430.387,59.39C430.387,56.021 430.973,53.596 432.144,52.115C433.113,50.894 434.464,50.284 436.197,50.284ZM436.197,53.128C435.782,53.128 435.412,53.26 435.086,53.525C434.761,53.789 434.509,54.263 434.33,54.947C434.094,55.834 433.976,57.327 433.976,59.427C433.976,61.526 434.081,62.969 434.293,63.754C434.505,64.539 434.771,65.062 435.092,65.323C435.414,65.583 435.782,65.713 436.197,65.713C436.612,65.713 436.983,65.581 437.308,65.317C437.634,65.052 437.886,64.578 438.065,63.894C438.301,63.016 438.419,61.526 438.419,59.427C438.419,57.327 438.313,55.885 438.102,55.099C437.89,54.314 437.623,53.789 437.302,53.525C436.981,53.26 436.612,53.128 436.197,53.128Z"/>
        </g>
        <g>
            <path d="M425.272,27.252L421.842,27.252L421.842,14.325C420.589,15.497 419.111,16.364 417.411,16.925L417.411,13.812C418.306,13.519 419.278,12.964 420.328,12.146C421.378,11.328 422.098,10.374 422.489,9.284L425.272,9.284L425.272,27.252Z"/>
            <path d="M436.197,9.284C437.931,9.284 439.286,9.902 440.262,11.139C441.426,12.604 442.008,15.033 442.008,18.427C442.008,21.812 441.422,24.245 440.25,25.726C439.282,26.947 437.931,27.558 436.197,27.558C434.456,27.558 433.052,26.888 431.986,25.549C430.92,24.211 430.387,21.824 430.387,18.39C430.387,15.021 430.973,12.596 432.144,11.115C433.113,9.894 434.464,9.284 436.197,9.284ZM436.197,12.128C435.782,12.128 435.412,12.26 435.086,12.525C434.761,12.789 434.509,13.263 434.33,13.947C434.094,14.834 433.976,16.327 433.976,18.427C433.976,20.526 434.081,21.969 434.293,22.754C434.505,23.539 434.771,24.062 435.092,24.323C435.414,24.583 435.782,24.713 436.197,24.713C436.612,24.713 436.983,24.581 437.308,24.317C437.634,24.052 437.886,23.578 438.065,22.894C438.301,22.016 438.419,20.526 438.419,18.427C438.419,16.327 438.313,14.885 438.102,14.099C437.89,13.314 437.623,12.789 437.302,12.525C436.981,12.26 436.612,12.128 436.197,12.128Z"/>
            <path d="M450.101,9.284C451.834,9.284 453.189,9.902 454.166,11.139C455.33,12.604 455.912,15.033 455.912,18.427C455.912,21.812 455.326,24.245 454.154,25.726C453.185,26.947 451.834,27.558 450.101,27.558C448.36,27.558 446.956,26.888 445.89,25.549C444.824,24.211 444.29,21.824 444.29,18.39C444.29,15.021 444.876,12.596 446.048,11.115C447.017,9.894 448.368,9.284 450.101,9.284ZM450.101,12.128C449.686,12.128 449.316,12.26 448.99,12.525C448.665,12.789 448.412,13.263 448.233,13.947C447.997,14.834 447.879,16.327 447.879,18.427C447.879,20.526 447.985,21.969 448.197,22.754C448.408,23.539 448.675,24.062 448.996,24.323C449.318,24.583 449.686,24.713 450.101,24.713C450.516,24.713 450.886,24.581 451.212,24.317C451.537,24.052 451.79,23.578 451.969,22.894C452.205,22.016 452.323,20.526 452.323,18.427C452.323,16.327 452.217,14.885 452.005,14.099C451.794,13.314 451.527,12.789 451.206,12.525C450.884,12.26 450.516,12.128 450.101,12.128Z"/>
        </g>
    </g>
</svg>
